<svg width="176" height="176" viewBox="0 0 176 176" fill="none" xmlns="http://www.w3.org/2000/svg">
<g clip-path="url(#clip0)">
<path d="M88.0082 0.0488753C88.0245 0.0488753 88.0408 0.0325835 88.0408 0.0162918C88.0408 0 88.0245 0 88.0082 0C87.9919 0 87.9756 0.0162918 87.9756 0.0325835C87.9756 0.0488753 87.9919 0.0488753 88.0082 0.0488753Z" fill="#393737"/>
<path d="M48.9078 9.82394C48.9241 9.82394 48.9404 9.80765 48.9404 9.79136C48.9404 9.77507 48.9241 9.75877 48.9078 9.75877C48.8915 9.77507 48.8752 9.79136 48.8752 9.80765C48.8752 9.82394 48.8915 9.82394 48.9078 9.82394Z" fill="#393737"/>
<path d="M58.6831 9.93798C58.7551 9.93798 58.8134 9.87963 58.8134 9.80765C58.8134 9.73567 58.7551 9.67731 58.6831 9.67731C58.6111 9.67731 58.5527 9.73567 58.5527 9.80765C58.5527 9.87963 58.6111 9.93798 58.6831 9.93798Z" fill="#393737"/>
<path d="M68.4579 10.1335C68.6371 10.1335 68.7838 9.98686 68.7838 9.80765C68.7838 9.62844 68.6371 9.48181 68.4579 9.48181C68.2787 9.48181 68.1321 9.62844 68.1321 9.80765C68.1321 9.98686 68.2787 10.1335 68.4579 10.1335Z" fill="#393737"/>
<path d="M78.2332 10.2638C78.4938 10.2638 78.6893 10.052 78.6893 9.80765C78.6893 9.54698 78.4775 9.35148 78.2332 9.35148C77.9888 9.35148 77.777 9.56327 77.777 9.80765C77.7607 10.052 77.9725 10.2638 78.2332 10.2638Z" fill="#393737"/>
<path d="M88.0082 10.3127C88.2851 10.3127 88.5295 10.0846 88.5295 9.79136C88.5295 9.5144 88.3014 9.27002 88.0082 9.27002C87.7312 9.27002 87.4868 9.4981 87.4868 9.79136C87.4868 10.0846 87.7149 10.3127 88.0082 10.3127Z" fill="#393737"/>
<path d="M97.7832 10.2964C98.0601 10.2964 98.2719 10.0846 98.2719 9.80765C98.2719 9.53069 98.0601 9.31889 97.7832 9.31889C97.5062 9.31889 97.2944 9.53069 97.2944 9.80765C97.2944 10.0846 97.5062 10.2964 97.7832 10.2964Z" fill="#393737"/>
<path d="M107.558 10.1661C107.756 10.1661 107.917 10.0056 107.917 9.80764C107.917 9.6097 107.756 9.44923 107.558 9.44923C107.36 9.44923 107.2 9.6097 107.2 9.80764C107.2 10.0056 107.36 10.1661 107.558 10.1661Z" fill="#393737"/>
<path d="M117.333 9.97056C117.431 9.97056 117.496 9.9054 117.496 9.80765C117.496 9.7099 117.431 9.64473 117.333 9.64473C117.236 9.64473 117.17 9.7099 117.17 9.80765C117.17 9.88911 117.236 9.97056 117.333 9.97056Z" fill="#393737"/>
<path d="M127.108 9.82394C127.125 9.82394 127.141 9.80765 127.141 9.79136C127.141 9.77507 127.125 9.75877 127.108 9.75877C127.092 9.75877 127.076 9.79136 127.076 9.80765C127.076 9.82394 127.092 9.82394 127.108 9.82394Z" fill="#393737"/>
<path d="M39.1328 19.6805C39.198 19.6805 39.2469 19.6316 39.2469 19.5664C39.2469 19.5013 39.198 19.4524 39.1328 19.4524C39.0677 19.4524 39.0188 19.5013 39.0188 19.5664C39.0188 19.6316 39.0677 19.6805 39.1328 19.6805Z" fill="#393737"/>
<path d="M48.908 20.0389C49.1686 20.0389 49.3641 19.8271 49.3641 19.5827C49.3641 19.322 49.1524 19.1265 48.908 19.1265C48.6473 19.1265 48.4518 19.3383 48.4518 19.5827C48.4355 19.8271 48.6473 20.0389 48.908 20.0389Z" fill="#393737"/>
<path d="M58.6829 20.3647C59.1148 20.3647 59.4649 20.0146 59.4649 19.5827C59.4649 19.1508 59.1148 18.8007 58.6829 18.8007C58.251 18.8007 57.9009 19.1508 57.9009 19.5827C57.9009 20.0146 58.251 20.3647 58.6829 20.3647Z" fill="#393737"/>
<path d="M68.4579 20.6417C69.0444 20.6417 69.5169 20.1692 69.5169 19.5827C69.5169 18.9962 69.0444 18.5237 68.4579 18.5237C67.8714 18.5237 67.3989 18.9962 67.3989 19.5827C67.3989 20.1692 67.8714 20.6417 68.4579 20.6417Z" fill="#393737"/>
<path d="M78.2331 20.8046C78.9079 20.8046 79.455 20.2575 79.455 19.5827C79.455 18.9079 78.9079 18.3608 78.2331 18.3608C77.5583 18.3608 77.0112 18.9079 77.0112 19.5827C77.0112 20.2575 77.5583 20.8046 78.2331 20.8046Z" fill="#393737"/>
<path d="M88.0082 20.8535C88.7087 20.8535 89.2789 20.2833 89.2789 19.5827C89.2789 18.8822 88.7087 18.312 88.0082 18.312C87.3076 18.312 86.7374 18.8822 86.7374 19.5827C86.7211 20.2833 87.2913 20.8535 88.0082 20.8535Z" fill="#393737"/>
<path d="M97.7832 20.8046C98.458 20.8046 99.0051 20.2575 99.0051 19.5827C99.0051 18.9079 98.458 18.3608 97.7832 18.3608C97.1083 18.3608 96.5613 18.9079 96.5613 19.5827C96.5613 20.2575 97.1083 20.8046 97.7832 20.8046Z" fill="#393737"/>
<path d="M107.558 20.6743C108.161 20.6743 108.65 20.1856 108.65 19.5827C108.65 18.9799 108.161 18.4912 107.558 18.4912C106.955 18.4912 106.467 18.9799 106.467 19.5827C106.467 20.1856 106.955 20.6743 107.558 20.6743Z" fill="#393737"/>
<path d="M117.333 20.3973C117.79 20.3973 118.148 20.0389 118.148 19.5827C118.148 19.1265 117.79 18.7681 117.333 18.7681C116.877 18.7681 116.519 19.1265 116.519 19.5827C116.519 20.0226 116.877 20.3973 117.333 20.3973Z" fill="#393737"/>
<path d="M127.108 20.0715C127.385 20.0715 127.597 19.8597 127.597 19.5827C127.597 19.3058 127.385 19.094 127.108 19.094C126.831 19.094 126.62 19.3058 126.62 19.5827C126.62 19.8434 126.831 20.0715 127.108 20.0715Z" fill="#393737"/>
<path d="M136.884 19.713C136.955 19.713 137.014 19.6547 137.014 19.5827C137.014 19.5107 136.955 19.4524 136.884 19.4524C136.812 19.4524 136.753 19.5107 136.753 19.5827C136.753 19.6547 136.812 19.713 136.884 19.713Z" fill="#393737"/>
<path d="M29.3577 29.5207C29.4555 29.5207 29.5207 29.4555 29.5207 29.3578C29.5207 29.26 29.4555 29.1949 29.3577 29.1949C29.26 29.1949 29.1948 29.26 29.1948 29.3578C29.1948 29.4392 29.26 29.5207 29.3577 29.5207Z" fill="#393737"/>
<path d="M39.1329 30.0094C39.4928 30.0094 39.7845 29.7177 39.7845 29.3578C39.7845 28.9979 39.4928 28.7061 39.1329 28.7061C38.773 28.7061 38.4812 28.9979 38.4812 29.3578C38.4812 29.7177 38.773 30.0094 39.1329 30.0094Z" fill="#393737"/>
<path d="M48.908 30.4656C49.5271 30.4656 50.0159 29.9606 50.0159 29.3578C50.0159 28.7387 49.5108 28.2499 48.908 28.2499C48.2889 28.2499 47.8002 28.755 47.8002 29.3578C47.7839 29.9606 48.2889 30.4656 48.908 30.4656Z" fill="#393737"/>
<path d="M58.6829 30.8403C59.5138 30.8403 60.1818 30.1724 60.1818 29.3578C60.1818 28.5269 59.5138 27.8589 58.6829 27.8589C57.852 27.8589 57.1841 28.5269 57.1841 29.3578C57.1841 30.1724 57.852 30.8403 58.6829 30.8403Z" fill="#393737"/>
<path d="M68.458 31.1173C69.4355 31.1173 70.2175 30.3353 70.2175 29.3578C70.2175 28.3803 69.4355 27.5983 68.458 27.5983C67.4805 27.5983 66.6985 28.3803 66.6985 29.3578C66.6985 30.319 67.4805 31.1173 68.458 31.1173Z" fill="#393737"/>
<path d="M78.2331 31.2965C79.3083 31.2965 80.1881 30.4167 80.1881 29.3415C80.1881 28.2662 79.3083 27.3865 78.2331 27.3865C77.1578 27.3865 76.2781 28.2662 76.2781 29.3415C76.2781 30.4167 77.1578 31.2965 78.2331 31.2965Z" fill="#393737"/>
<path d="M88.0082 31.378C89.1323 31.378 90.0446 30.4656 90.0446 29.3415C90.0446 28.2173 89.1323 27.305 88.0082 27.305C86.884 27.305 85.9717 28.2173 85.9717 29.3415C85.9717 30.4819 86.884 31.378 88.0082 31.378Z" fill="#393737"/>
<path d="M97.7833 31.3291C98.8748 31.3291 99.7546 30.4493 99.7546 29.3578C99.7546 28.2662 98.8748 27.3865 97.7833 27.3865C96.6917 27.3865 95.812 28.2662 95.812 29.3578C95.7957 30.4493 96.6917 31.3291 97.7833 31.3291Z" fill="#393737"/>
<path d="M107.558 31.1499C108.548 31.1499 109.35 30.3475 109.35 29.3578C109.35 28.368 108.548 27.5657 107.558 27.5657C106.568 27.5657 105.766 28.368 105.766 29.3578C105.766 30.3475 106.568 31.1499 107.558 31.1499Z" fill="#393737"/>
<path d="M117.333 30.8729C118.164 30.8729 118.848 30.1887 118.848 29.3578C118.848 28.5269 118.164 27.8426 117.333 27.8426C116.502 27.8426 115.818 28.5269 115.818 29.3578C115.802 30.1887 116.486 30.8729 117.333 30.8729Z" fill="#393737"/>
<path d="M127.108 30.4982C127.738 30.4982 128.249 29.9876 128.249 29.3578C128.249 28.7279 127.738 28.2173 127.108 28.2173C126.479 28.2173 125.968 28.7279 125.968 29.3578C125.968 29.9876 126.479 30.4982 127.108 30.4982Z" fill="#393737"/>
<path d="M136.883 30.0257C137.258 30.0257 137.568 29.7162 137.568 29.3415C137.568 28.9668 137.258 28.6572 136.883 28.6572C136.509 28.6572 136.199 28.9668 136.199 29.3415C136.199 29.7325 136.509 30.0257 136.883 30.0257Z" fill="#393737"/>
<path d="M146.659 29.5696C146.776 29.5696 146.87 29.4747 146.87 29.3578C146.87 29.2408 146.776 29.146 146.659 29.146C146.542 29.146 146.447 29.2408 146.447 29.3578C146.447 29.4747 146.542 29.5696 146.659 29.5696Z" fill="#393737"/>
<path d="M19.5828 39.2306C19.648 39.2306 19.6968 39.1817 19.6968 39.1165C19.6968 39.0514 19.648 39.0025 19.5828 39.0025C19.5176 39.0025 19.4688 39.0514 19.4688 39.1165C19.4688 39.1817 19.5176 39.2306 19.5828 39.2306Z" fill="#393737"/>
<path d="M29.3577 39.7845C29.7176 39.7845 30.0094 39.4927 30.0094 39.1328C30.0094 38.7729 29.7176 38.4812 29.3577 38.4812C28.9978 38.4812 28.7061 38.7729 28.7061 39.1328C28.7061 39.4927 28.9978 39.7845 29.3577 39.7845Z" fill="#393737"/>
<path d="M39.1328 40.3221C39.7844 40.3221 40.3221 39.7845 40.3221 39.1328C40.3221 38.4812 39.7844 37.9435 39.1328 37.9435C38.4811 37.9435 37.9435 38.4812 37.9435 39.1328C37.9272 39.7845 38.4648 40.3221 39.1328 40.3221Z" fill="#393737"/>
<path d="M48.9079 40.8272C49.8528 40.8272 50.6185 40.0615 50.6185 39.1165C50.6185 38.1716 49.8528 37.4059 48.9079 37.4059C47.963 37.4059 47.1973 38.1716 47.1973 39.1165C47.1973 40.0778 47.963 40.8272 48.9079 40.8272Z" fill="#393737"/>
<path d="M58.6831 41.2671C59.8618 41.2671 60.8173 40.3115 60.8173 39.1328C60.8173 37.9541 59.8618 36.9986 58.6831 36.9986C57.5044 36.9986 56.5488 37.9541 56.5488 39.1328C56.5488 40.3115 57.5044 41.2671 58.6831 41.2671Z" fill="#393737"/>
<path d="M68.458 41.5929C69.8266 41.5929 70.9181 40.485 70.9181 39.1328C70.9181 37.7643 69.8103 36.6728 68.458 36.6728C67.1058 36.6728 65.998 37.7806 65.998 39.1328C65.9817 40.485 67.0895 41.5929 68.458 41.5929Z" fill="#393737"/>
<path d="M78.2331 41.8047C79.7156 41.8047 80.9212 40.5991 80.9212 39.1165C80.9212 37.634 79.7156 36.4284 78.2331 36.4284C76.7505 36.4284 75.5449 37.634 75.5449 39.1165C75.5449 40.6154 76.7505 41.8047 78.2331 41.8047Z" fill="#393737"/>
<path d="M88.0081 41.8861C89.5396 41.8861 90.7777 40.648 90.7777 39.1165C90.7777 37.5851 89.5396 36.3469 88.0081 36.3469C86.4767 36.3469 85.2385 37.5851 85.2385 39.1165C85.2385 40.648 86.4767 41.8861 88.0081 41.8861Z" fill="#393737"/>
<path d="M97.7832 41.8373C99.282 41.8373 100.488 40.6317 100.488 39.1328C100.488 37.634 99.282 36.4284 97.7832 36.4284C96.2844 36.4284 95.0788 37.634 95.0788 39.1328C95.0625 40.6317 96.2844 41.8373 97.7832 41.8373Z" fill="#393737"/>
<path d="M107.558 41.6255C108.943 41.6255 110.051 40.5013 110.051 39.1328C110.051 37.748 108.927 36.6402 107.558 36.6402C106.174 36.6402 105.066 37.7643 105.066 39.1328C105.066 40.5013 106.174 41.6255 107.558 41.6255Z" fill="#393737"/>
<path d="M117.333 41.2996C118.539 41.2996 119.5 40.3221 119.5 39.1328C119.5 37.9435 118.523 36.966 117.333 36.966C116.144 36.966 115.167 37.9435 115.167 39.1328C115.167 40.3221 116.128 41.2996 117.333 41.2996Z" fill="#393737"/>
<path d="M127.108 40.8598C128.069 40.8598 128.835 40.0778 128.835 39.1328C128.835 38.1716 128.053 37.4059 127.108 37.4059C126.147 37.4059 125.381 38.1879 125.381 39.1328C125.365 40.0778 126.147 40.8598 127.108 40.8598Z" fill="#393737"/>
<path d="M136.883 40.371C137.568 40.371 138.138 39.8171 138.138 39.1166C138.138 38.4323 137.584 37.8621 136.883 37.8621C136.183 37.8621 135.629 38.416 135.629 39.1166C135.629 39.8171 136.183 40.371 136.883 40.371Z" fill="#393737"/>
<path d="M146.658 39.8334C147.049 39.8334 147.359 39.5238 147.359 39.1328C147.359 38.7418 147.049 38.4323 146.658 38.4323C146.267 38.4323 145.958 38.7418 145.958 39.1328C145.942 39.5238 146.267 39.8334 146.658 39.8334Z" fill="#393737"/>
<path d="M156.434 39.2632C156.506 39.2632 156.564 39.2048 156.564 39.1328C156.564 39.0609 156.506 39.0025 156.434 39.0025C156.362 39.0025 156.303 39.0609 156.303 39.1328C156.303 39.2048 156.362 39.2632 156.434 39.2632Z" fill="#393737"/>
<path d="M9.80773 48.9242C9.82402 48.9242 9.84031 48.9079 9.84031 48.8916C9.84031 48.8753 9.82402 48.859 9.80773 48.859C9.79144 48.8753 9.77515 48.8916 9.77515 48.9079C9.77515 48.9242 9.79144 48.9242 9.80773 48.9242Z" fill="#393737"/>
<path d="M19.5828 49.3641C19.8435 49.3641 20.039 49.1523 20.039 48.9079C20.039 48.6472 19.8272 48.4517 19.5828 48.4517C19.3221 48.4517 19.1266 48.6635 19.1266 48.9079C19.1103 49.1523 19.3221 49.3641 19.5828 49.3641Z" fill="#393737"/>
<path d="M29.3577 50.0157C29.9768 50.0157 30.4656 49.5107 30.4656 48.9079C30.4656 48.2888 29.9605 47.8 29.3577 47.8C28.7386 47.8 28.2499 48.3051 28.2499 48.9079C28.2336 49.5107 28.7386 50.0157 29.3577 50.0157Z" fill="#393737"/>
<path d="M39.1328 50.6022C40.0777 50.6022 40.8434 49.8365 40.8434 48.8916C40.8434 47.9467 40.0777 47.181 39.1328 47.181C38.1878 47.181 37.4221 47.9467 37.4221 48.8916C37.4221 49.8528 38.1878 50.6022 39.1328 50.6022Z" fill="#393737"/>
<path d="M48.9078 51.1724C50.1623 51.1724 51.1886 50.1461 51.1886 48.8916C51.1886 47.6371 50.1623 46.6107 48.9078 46.6107C47.6533 46.6107 46.627 47.6371 46.627 48.8916C46.627 50.1624 47.637 51.1724 48.9078 51.1724Z" fill="#393737"/>
<path d="M58.6829 51.6612C60.2144 51.6612 61.4525 50.423 61.4525 48.8916C61.4525 47.3602 60.2144 46.122 58.6829 46.122C57.1515 46.122 55.9133 47.3602 55.9133 48.8916C55.9133 50.423 57.1515 51.6612 58.6829 51.6612Z" fill="#393737"/>
<path d="M68.4581 52.0685C70.2177 52.0685 71.635 50.6511 71.635 48.8916C71.635 47.1321 70.2177 45.7147 68.4581 45.7147C66.6986 45.7147 65.2812 47.1321 65.2812 48.8916C65.2812 50.6511 66.6986 52.0685 68.4581 52.0685Z" fill="#393737"/>
<path d="M78.233 52.3129C80.1229 52.3129 81.6543 50.7815 81.6543 48.8916C81.6543 47.0018 80.1229 45.4703 78.233 45.4703C76.3432 45.4703 74.8118 47.0018 74.8118 48.8916C74.8118 50.7815 76.3432 52.3129 78.233 52.3129Z" fill="#393737"/>
<path d="M88.0081 52.3943C89.9468 52.3943 91.5108 50.8303 91.5108 48.8916C91.5108 46.9529 89.9468 45.3889 88.0081 45.3889C86.0694 45.3889 84.5054 46.9529 84.5054 48.8916C84.5054 50.8303 86.0694 52.3943 88.0081 52.3943Z" fill="#393737"/>
<path d="M97.7833 52.3455C99.6818 52.3455 101.221 50.8064 101.221 48.9079C101.221 47.0094 99.6818 45.4703 97.7833 45.4703C95.8848 45.4703 94.3457 47.0094 94.3457 48.9079C94.3457 50.8064 95.8848 52.3455 97.7833 52.3455Z" fill="#393737"/>
<path d="M107.558 52.1011C109.318 52.1011 110.752 50.6674 110.752 48.9079C110.752 47.1484 109.318 45.7147 107.558 45.7147C105.799 45.7147 104.365 47.1484 104.365 48.9079C104.349 50.6674 105.783 52.1011 107.558 52.1011Z" fill="#393737"/>
<path d="M117.333 51.6938C118.872 51.6938 120.119 50.4465 120.119 48.9079C120.119 47.3693 118.872 46.122 117.333 46.122C115.795 46.122 114.547 47.3693 114.547 48.9079C114.547 50.4465 115.795 51.6938 117.333 51.6938Z" fill="#393737"/>
<path d="M127.108 51.205C128.377 51.205 129.406 50.1766 129.406 48.9079C129.406 47.6392 128.377 46.6107 127.108 46.6107C125.84 46.6107 124.811 47.6392 124.811 48.9079C124.811 50.1766 125.84 51.205 127.108 51.205Z" fill="#393737"/>
<path d="M136.884 50.6674C137.861 50.6674 138.643 49.8854 138.643 48.9079C138.643 47.9304 137.861 47.1484 136.884 47.1484C135.906 47.1484 135.124 47.9304 135.124 48.9079C135.124 49.8691 135.906 50.6674 136.884 50.6674Z" fill="#393737"/>
<path d="M146.658 50.0483C147.288 50.0483 147.799 49.5377 147.799 48.9079C147.799 48.2781 147.288 47.7675 146.658 47.7675C146.029 47.7675 145.518 48.2781 145.518 48.9079C145.518 49.5377 146.029 50.0483 146.658 50.0483Z" fill="#393737"/>
<path d="M156.434 49.4129C156.711 49.4129 156.955 49.1849 156.955 48.8916C156.955 48.6146 156.727 48.3703 156.434 48.3703C156.14 48.3703 155.912 48.5984 155.912 48.8916C155.912 49.1849 156.14 49.4129 156.434 49.4129Z" fill="#393737"/>
<path d="M166.209 48.9242C166.225 48.9242 166.241 48.9079 166.241 48.8916C166.241 48.8753 166.225 48.859 166.209 48.859C166.192 48.859 166.176 48.8916 166.176 48.9079C166.176 48.9242 166.192 48.9242 166.209 48.9242Z" fill="#393737"/>
<path d="M9.80758 58.8133C9.87956 58.8133 9.93792 58.7549 9.93792 58.683C9.93792 58.611 9.87956 58.5526 9.80758 58.5526C9.7356 58.5526 9.67725 58.611 9.67725 58.683C9.67725 58.7549 9.7356 58.8133 9.80758 58.8133Z" fill="#393737"/>
<path d="M19.5828 59.465C20.0147 59.465 20.3648 59.1149 20.3648 58.683C20.3648 58.2511 20.0147 57.901 19.5828 57.901C19.1509 57.901 18.8008 58.2511 18.8008 58.683C18.8008 59.1149 19.1509 59.465 19.5828 59.465Z" fill="#393737"/>
<path d="M29.3577 60.1655C30.1886 60.1655 30.8566 59.4975 30.8566 58.6667C30.8566 57.8358 30.1886 57.1678 29.3577 57.1678C28.5268 57.1678 27.8589 57.8358 27.8589 58.6667C27.8589 59.4975 28.5268 60.1655 29.3577 60.1655Z" fill="#393737"/>
<path d="M39.1328 60.8172C40.3115 60.8172 41.267 59.8617 41.267 58.683C41.267 57.5043 40.3115 56.5487 39.1328 56.5487C37.9541 56.5487 36.9985 57.5043 36.9985 58.683C36.9985 59.8617 37.9541 60.8172 39.1328 60.8172Z" fill="#393737"/>
<path d="M48.9078 61.4363C50.4392 61.4363 51.6774 60.1981 51.6774 58.6667C51.6774 57.1352 50.4392 55.8971 48.9078 55.8971C47.3764 55.8971 46.1382 57.1352 46.1382 58.6667C46.1382 60.1981 47.3764 61.4363 48.9078 61.4363Z" fill="#393737"/>
<path d="M58.6831 62.0065C60.524 62.0065 62.0229 60.5076 62.0229 58.6667C62.0229 56.8257 60.524 55.3268 58.6831 55.3268C56.8421 55.3268 55.3433 56.8257 55.3433 58.6667C55.3433 60.5239 56.8421 62.0065 58.6831 62.0065Z" fill="#393737"/>
<path d="M68.4581 62.202C70.3968 62.202 71.9771 60.6217 71.9771 58.683C71.9771 56.7442 70.3968 55.1639 68.4581 55.1639C66.5194 55.1639 64.9391 56.7442 64.9391 58.683C64.9228 60.6217 66.5031 62.202 68.4581 62.202Z" fill="#393737"/>
<path d="M78.2331 61.8761C79.9926 61.8761 81.4263 60.4425 81.4263 58.683C81.4263 56.9235 79.9926 55.4898 78.2331 55.4898C76.4736 55.4898 75.0399 56.9235 75.0399 58.683C75.0236 60.4425 76.4573 61.8761 78.2331 61.8761Z" fill="#393737"/>
<path d="M88.0082 61.7132C89.6863 61.7132 91.0385 60.361 91.0385 58.683C91.0385 57.0049 89.6863 55.6527 88.0082 55.6527C86.3301 55.6527 84.9779 57.0049 84.9779 58.683C84.9616 60.361 86.3301 61.7132 88.0082 61.7132Z" fill="#393737"/>
<path d="M97.7833 61.8436C99.5429 61.8436 100.96 60.4262 100.96 58.6667C100.96 56.9072 99.5429 55.4898 97.7833 55.4898C96.0238 55.4898 94.6064 56.9072 94.6064 58.6667C94.6064 60.4262 96.0238 61.8436 97.7833 61.8436Z" fill="#393737"/>
<path d="M107.558 62.1694C109.497 62.1694 111.061 60.6054 111.061 58.6667C111.061 56.7279 109.497 55.1639 107.558 55.1639C105.62 55.1639 104.056 56.7279 104.056 58.6667C104.056 60.6054 105.62 62.1694 107.558 62.1694Z" fill="#393737"/>
<path d="M117.333 62.0391C119.187 62.0391 120.69 60.5365 120.69 58.683C120.69 56.8294 119.187 55.3268 117.333 55.3268C115.48 55.3268 113.977 56.8294 113.977 58.683C113.977 60.5365 115.48 62.0391 117.333 62.0391Z" fill="#393737"/>
<path d="M127.109 61.5014C128.673 61.5014 129.927 60.247 129.927 58.683C129.927 57.119 128.673 55.8645 127.109 55.8645C125.544 55.8645 124.29 57.119 124.29 58.683C124.29 60.2307 125.544 61.5014 127.109 61.5014Z" fill="#393737"/>
<path d="M136.883 60.8661C138.089 60.8661 139.083 59.8886 139.083 58.6667C139.083 57.4448 138.105 56.4673 136.883 56.4673C135.662 56.4673 134.684 57.4448 134.684 58.6667C134.684 59.8886 135.662 60.8661 136.883 60.8661Z" fill="#393737"/>
<path d="M146.659 60.2307C147.506 60.2307 148.206 59.5464 148.206 58.683C148.206 57.8358 147.522 57.1352 146.659 57.1352C145.811 57.1352 145.111 57.8195 145.111 58.683C145.111 59.5301 145.795 60.2307 146.659 60.2307Z" fill="#393737"/>
<path d="M156.434 59.5464C156.91 59.5464 157.297 59.1598 157.297 58.683C157.297 58.2061 156.91 57.8195 156.434 57.8195C155.957 57.8195 155.57 58.2061 155.57 58.683C155.57 59.1598 155.957 59.5464 156.434 59.5464Z" fill="#393737"/>
<path d="M166.209 58.8622C166.306 58.8622 166.404 58.7807 166.404 58.6667C166.404 58.5689 166.323 58.4712 166.209 58.4712C166.095 58.4712 166.013 58.5526 166.013 58.6667C166.013 58.7807 166.095 58.8622 166.209 58.8622Z" fill="#393737"/>
<path d="M9.80777 68.7839C9.98698 68.7839 10.1336 68.6372 10.1336 68.458C10.1336 68.2788 9.98698 68.1322 9.80777 68.1322C9.62856 68.1322 9.48193 68.2788 9.48193 68.458C9.48193 68.6372 9.62856 68.7839 9.80777 68.7839Z" fill="#393737"/>
<path d="M19.5826 69.517C20.1692 69.517 20.6416 69.0445 20.6416 68.458C20.6416 67.8715 20.1692 67.399 19.5826 67.399C18.9961 67.399 18.5237 67.8715 18.5237 68.458C18.5237 69.0445 18.9961 69.517 19.5826 69.517Z" fill="#393737"/>
<path d="M29.3577 70.2175C30.3352 70.2175 31.1172 69.4355 31.1172 68.458C31.1172 67.4805 30.3352 66.6985 29.3577 66.6985C28.3801 66.6985 27.5981 67.4805 27.5981 68.458C27.5981 69.4192 28.3801 70.2175 29.3577 70.2175Z" fill="#393737"/>
<path d="M39.1328 70.9181C40.5014 70.9181 41.5929 69.8102 41.5929 68.458C41.5929 67.0895 40.4851 65.998 39.1328 65.998C37.7643 65.998 36.6728 67.1058 36.6728 68.458C36.6565 69.8102 37.7643 70.9181 39.1328 70.9181Z" fill="#393737"/>
<path d="M48.9079 71.6186C50.6674 71.6186 52.0847 70.2012 52.0847 68.4417C52.0847 66.6822 50.6674 65.2648 48.9079 65.2648C47.1483 65.2648 45.731 66.6822 45.731 68.4417C45.731 70.2012 47.1483 71.6186 48.9079 71.6186Z" fill="#393737"/>
<path d="M58.683 71.977C60.6217 71.977 62.202 70.3967 62.202 68.458C62.202 66.5193 60.6217 64.939 58.683 64.939C56.7442 64.939 55.1639 66.5193 55.1639 68.458C55.1477 70.3967 56.728 71.977 58.683 71.977Z" fill="#393737"/>
<path d="M68.4579 71.3254C70.0415 71.3254 71.3253 70.0416 71.3253 68.458C71.3253 66.8744 70.0415 65.5907 68.4579 65.5907C66.8743 65.5907 65.5906 66.8744 65.5906 68.458C65.5906 70.0416 66.8743 71.3254 68.4579 71.3254Z" fill="#393737"/>
<path d="M78.2332 70.7552C79.5018 70.7552 80.5303 69.7267 80.5303 68.458C80.5303 67.1894 79.5018 66.1609 78.2332 66.1609C76.9645 66.1609 75.936 67.1894 75.936 68.458C75.936 69.7267 76.9645 70.7552 78.2332 70.7552Z" fill="#393737"/>
<path d="M88.0081 70.5108C89.1485 70.5108 90.0608 69.5821 90.0608 68.458C90.0608 67.3176 89.1322 66.4053 88.0081 66.4053C86.8676 66.4053 85.9553 67.3339 85.9553 68.458C85.939 69.5984 86.8676 70.5108 88.0081 70.5108Z" fill="#393737"/>
<path d="M97.7832 70.7063C99.0213 70.7063 100.031 69.6962 100.031 68.458C100.031 67.2198 99.0213 66.2097 97.7832 66.2097C96.545 66.2097 95.5349 67.2198 95.5349 68.458C95.5349 69.6962 96.5287 70.7063 97.7832 70.7063Z" fill="#393737"/>
<path d="M107.558 71.2765C109.122 71.2765 110.377 70.022 110.377 68.458C110.377 66.894 109.122 65.6396 107.558 65.6396C105.994 65.6396 104.74 66.894 104.74 68.458C104.74 70.0058 105.994 71.2765 107.558 71.2765Z" fill="#393737"/>
<path d="M117.333 71.9445C119.272 71.9445 120.836 70.3804 120.836 68.4417C120.836 66.503 119.272 64.939 117.333 64.939C115.395 64.939 113.831 66.503 113.831 68.4417C113.831 70.3804 115.395 71.9445 117.333 71.9445Z" fill="#393737"/>
<path d="M127.108 71.6838C128.89 71.6838 130.334 70.2396 130.334 68.458C130.334 66.6765 128.89 65.2323 127.108 65.2323C125.327 65.2323 123.883 66.6765 123.883 68.458C123.883 70.2396 125.327 71.6838 127.108 71.6838Z" fill="#393737"/>
<path d="M136.883 70.967C138.268 70.967 139.409 69.8428 139.409 68.4417C139.409 67.0569 138.284 65.9165 136.883 65.9165C135.499 65.9165 134.358 67.0406 134.358 68.4417C134.358 69.8428 135.482 70.967 136.883 70.967Z" fill="#393737"/>
<path d="M146.659 70.299C147.669 70.299 148.5 69.4681 148.5 68.458C148.5 67.4479 147.669 66.6171 146.659 66.6171C145.648 66.6171 144.818 67.4479 144.818 68.458C144.818 69.4681 145.632 70.299 146.659 70.299Z" fill="#393737"/>
<path d="M156.434 69.5659C157.053 69.5659 157.542 69.0608 157.542 68.458C157.542 67.8389 157.036 67.3502 156.434 67.3502C155.815 67.3502 155.326 67.8552 155.326 68.458C155.31 69.0608 155.815 69.5659 156.434 69.5659Z" fill="#393737"/>
<path d="M166.209 68.8327C166.421 68.8327 166.583 68.6698 166.583 68.458C166.583 68.2462 166.421 68.0833 166.209 68.0833C165.997 68.0833 165.834 68.2462 165.834 68.458C165.818 68.6698 165.997 68.8327 166.209 68.8327Z" fill="#393737"/>
<path d="M9.80773 78.6893C10.0684 78.6893 10.2639 78.4775 10.2639 78.2331C10.2639 77.9887 10.0521 77.7769 9.80773 77.7769C9.54706 77.7769 9.35156 77.9887 9.35156 78.2331C9.35156 78.4775 9.54706 78.6893 9.80773 78.6893Z" fill="#393737"/>
<path d="M19.5827 79.455C20.2575 79.455 20.8046 78.9079 20.8046 78.2331C20.8046 77.5583 20.2575 77.0112 19.5827 77.0112C18.9079 77.0112 18.3608 77.5583 18.3608 78.2331C18.3608 78.9079 18.9079 79.455 19.5827 79.455Z" fill="#393737"/>
<path d="M29.3578 80.1718C30.4331 80.1718 31.3129 79.292 31.3129 78.2168C31.3129 77.1415 30.4331 76.2618 29.3578 76.2618C28.2826 76.2618 27.4028 77.1415 27.4028 78.2168C27.4028 79.3083 28.2826 80.1718 29.3578 80.1718Z" fill="#393737"/>
<path d="M39.1327 80.9049C40.6153 80.9049 41.8209 79.6993 41.8209 78.2168C41.8209 76.7342 40.6153 75.5287 39.1327 75.5287C37.6502 75.5287 36.4446 76.7342 36.4446 78.2168C36.4446 79.7156 37.6502 80.9049 39.1327 80.9049Z" fill="#393737"/>
<path d="M48.9078 81.6381C50.7977 81.6381 52.3291 80.1066 52.3291 78.2168C52.3291 76.3269 50.7977 74.7955 48.9078 74.7955C47.018 74.7955 45.4866 76.3269 45.4866 78.2168C45.4866 80.1066 47.018 81.6381 48.9078 81.6381Z" fill="#393737"/>
<path d="M58.6831 81.4263C60.4426 81.4263 61.8763 79.9926 61.8763 78.2331C61.8763 76.4736 60.4426 75.0399 58.6831 75.0399C56.9236 75.0399 55.4899 76.4736 55.4899 78.2331C55.4736 79.9926 56.9073 81.4263 58.6831 81.4263Z" fill="#393737"/>
<path d="M68.458 80.5302C69.7267 80.5302 70.7552 79.5018 70.7552 78.2331C70.7552 76.9644 69.7267 75.9359 68.458 75.9359C67.1894 75.9359 66.1609 76.9644 66.1609 78.2331C66.1609 79.5018 67.1894 80.5302 68.458 80.5302Z" fill="#393737"/>
<path d="M78.233 79.7156C79.0639 79.7156 79.7318 79.0477 79.7318 78.2168C79.7318 77.3859 79.0639 76.7179 78.233 76.7179C77.4021 76.7179 76.7341 77.3859 76.7341 78.2168C76.7341 79.0477 77.4021 79.7156 78.233 79.7156Z" fill="#393737"/>
<path d="M88.0081 79.3246C88.6109 79.3246 89.0996 78.8359 89.0996 78.2331C89.0996 77.6302 88.6109 77.1415 88.0081 77.1415C87.4052 77.1415 86.9165 77.6302 86.9165 78.2331C86.9165 78.8359 87.4052 79.3246 88.0081 79.3246Z" fill="#393737"/>
<path d="M97.7833 79.6668C98.5751 79.6668 99.217 79.0249 99.217 78.2331C99.217 77.4413 98.5751 76.7994 97.7833 76.7994C96.9915 76.7994 96.3496 77.4413 96.3496 78.2331C96.3496 79.0249 96.9915 79.6668 97.7833 79.6668Z" fill="#393737"/>
<path d="M107.558 80.4488C108.782 80.4488 109.774 79.4568 109.774 78.2331C109.774 77.0094 108.782 76.0174 107.558 76.0174C106.335 76.0174 105.343 77.0094 105.343 78.2331C105.343 79.4568 106.335 80.4488 107.558 80.4488Z" fill="#393737"/>
<path d="M117.333 81.3448C119.06 81.3448 120.445 79.9437 120.445 78.2331C120.445 76.5062 119.044 75.1214 117.333 75.1214C115.623 75.1214 114.222 76.5224 114.222 78.2331C114.205 79.9437 115.606 81.3448 117.333 81.3448Z" fill="#393737"/>
<path d="M127.108 81.7032C129.031 81.7032 130.578 80.1555 130.578 78.2331C130.578 76.3107 129.031 74.7629 127.108 74.7629C125.186 74.7629 123.638 76.3107 123.638 78.2331C123.638 80.1392 125.186 81.7032 127.108 81.7032Z" fill="#393737"/>
<path d="M136.883 80.9864C138.415 80.9864 139.653 79.7482 139.653 78.2168C139.653 76.6854 138.415 75.4472 136.883 75.4472C135.352 75.4472 134.114 76.6854 134.114 78.2168C134.114 79.7482 135.352 80.9864 136.883 80.9864Z" fill="#393737"/>
<path d="M146.659 80.2533C147.783 80.2533 148.695 79.3409 148.695 78.2168C148.695 77.0927 147.783 76.1803 146.659 76.1803C145.534 76.1803 144.622 77.0927 144.622 78.2168C144.622 79.3572 145.534 80.2533 146.659 80.2533Z" fill="#393737"/>
<path d="M156.434 79.5038C157.134 79.5038 157.704 78.9336 157.704 78.2331C157.704 77.5325 157.134 76.9623 156.434 76.9623C155.733 76.9623 155.163 77.5325 155.163 78.2331C155.147 78.9336 155.717 79.5038 156.434 79.5038Z" fill="#393737"/>
<path d="M166.209 78.7707C166.502 78.7707 166.746 78.5263 166.746 78.2331C166.746 77.9398 166.502 77.6955 166.209 77.6955C165.915 77.6955 165.671 77.9398 165.671 78.2331C165.655 78.5263 165.899 78.7707 166.209 78.7707Z" fill="#393737"/>
<path d="M175.984 78.2494C176 78.2494 176.016 78.2331 176.016 78.2168C176.016 78.2005 176 78.2005 175.984 78.2005C175.967 78.2005 175.951 78.2168 175.951 78.2331C175.951 78.2494 175.967 78.2494 175.984 78.2494Z" fill="#393737"/>
<path d="M0.0325835 88.0244C0.0488753 88.0244 0.0651671 88.0081 0.0651671 87.9918C0.0651671 87.9756 0.0488753 87.9756 0.0325835 87.9756C0.0162918 87.9756 0 87.9918 0 88.0081C0 88.0244 0.0162918 88.0244 0.0325835 88.0244Z" fill="#393737"/>
<path d="M9.80771 88.5132C10.0847 88.5132 10.3291 88.2851 10.3291 87.9919C10.3291 87.7149 10.101 87.4705 9.80771 87.4705C9.53075 87.4705 9.28638 87.6986 9.28638 87.9919C9.28638 88.2851 9.51446 88.5132 9.80771 88.5132Z" fill="#393737"/>
<path d="M19.5826 89.2789C20.2832 89.2789 20.8534 88.7087 20.8534 88.0081C20.8534 87.3076 20.2832 86.7374 19.5826 86.7374C18.8821 86.7374 18.3119 87.3076 18.3119 88.0081C18.2956 88.7087 18.8658 89.2789 19.5826 89.2789Z" fill="#393737"/>
<path d="M29.3578 90.0283C30.4819 90.0283 31.3942 89.116 31.3942 87.9919C31.3942 86.8677 30.4819 85.9554 29.3578 85.9554C28.2336 85.9554 27.3213 86.8677 27.3213 87.9919C27.3213 89.1323 28.2336 90.0283 29.3578 90.0283Z" fill="#393737"/>
<path d="M39.1329 90.7615C40.6643 90.7615 41.9025 89.5233 41.9025 87.9918C41.9025 86.4604 40.6643 85.2222 39.1329 85.2222C37.6015 85.2222 36.3633 86.4604 36.3633 87.9918C36.3633 89.5233 37.6015 90.7615 39.1329 90.7615Z" fill="#393737"/>
<path d="M48.908 91.4946C50.8467 91.4946 52.4107 89.9306 52.4107 87.9919C52.4107 86.0531 50.8467 84.4891 48.908 84.4891C46.9693 84.4891 45.4053 86.0531 45.4053 87.9919C45.4053 89.9306 46.9693 91.4946 48.908 91.4946Z" fill="#393737"/>
<path d="M58.683 91.0384C60.3611 91.0384 61.7133 89.6862 61.7133 88.0081C61.7133 86.3301 60.3611 84.9779 58.683 84.9779C57.005 84.9779 55.6527 86.3301 55.6527 88.0081C55.6364 89.6862 57.005 91.0384 58.683 91.0384Z" fill="#393737"/>
<path d="M68.458 90.0609C69.5984 90.0609 70.5108 89.1323 70.5108 88.0081C70.5108 86.8677 69.5821 85.9554 68.458 85.9554C67.3176 85.9554 66.4052 86.884 66.4052 88.0081C66.3889 89.1486 67.3176 90.0609 68.458 90.0609Z" fill="#393737"/>
<path d="M78.2332 89.0997C78.836 89.0997 79.3247 88.611 79.3247 88.0081C79.3247 87.4053 78.836 86.9166 78.2332 86.9166C77.6303 86.9166 77.1416 87.4053 77.1416 88.0081C77.1416 88.611 77.6303 89.0997 78.2332 89.0997Z" fill="#393737"/>
<path d="M88.0081 88.3829C88.2199 88.3829 88.3828 88.2199 88.3828 88.0081C88.3828 87.7964 88.2199 87.6334 88.0081 87.6334C87.7963 87.6334 87.6334 87.7964 87.6334 88.0081C87.6171 88.2199 87.7963 88.3829 88.0081 88.3829Z" fill="#393737"/>
<path d="M97.7833 89.0182C98.3411 89.0182 98.7934 88.566 98.7934 88.0081C98.7934 87.4503 98.3411 86.998 97.7833 86.998C97.2254 86.998 96.7732 87.4503 96.7732 88.0081C96.7732 88.566 97.2254 89.0182 97.7833 89.0182Z" fill="#393737"/>
<path d="M107.558 89.9469C108.634 89.9469 109.513 89.0671 109.513 87.9919C109.513 86.9166 108.634 86.0368 107.558 86.0368C106.483 86.0368 105.603 86.9166 105.603 87.9919C105.603 89.0834 106.483 89.9469 107.558 89.9469Z" fill="#393737"/>
<path d="M117.333 90.957C118.962 90.957 120.282 89.6373 120.282 88.0081C120.282 86.379 118.962 85.0593 117.333 85.0593C115.704 85.0593 114.384 86.379 114.384 88.0081C114.368 89.6373 115.704 90.957 117.333 90.957Z" fill="#393737"/>
<path d="M127.108 91.5272C129.047 91.5272 130.628 89.9469 130.628 88.0082C130.628 86.0694 129.047 84.4891 127.108 84.4891C125.17 84.4891 123.589 86.0694 123.589 88.0082C123.573 89.9469 125.153 91.5272 127.108 91.5272Z" fill="#393737"/>
<path d="M136.884 90.8429C138.448 90.8429 139.735 89.5722 139.735 87.9919C139.735 86.4278 138.464 85.1408 136.884 85.1408C135.32 85.1408 134.032 86.4116 134.032 87.9919C134.032 89.5722 135.303 90.8429 136.884 90.8429Z" fill="#393737"/>
<path d="M146.659 90.0935C147.81 90.0935 148.744 89.1599 148.744 88.0081C148.744 86.8564 147.81 85.9228 146.659 85.9228C145.507 85.9228 144.573 86.8564 144.573 88.0081C144.573 89.1599 145.507 90.0935 146.659 90.0935Z" fill="#393737"/>
<path d="M156.434 89.3278C157.167 89.3278 157.77 88.725 157.77 87.9919C157.77 87.2587 157.183 86.6559 156.434 86.6559C155.7 86.6559 155.098 87.2424 155.098 87.9919C155.098 88.7413 155.7 89.3278 156.434 89.3278Z" fill="#393737"/>
<path d="M166.209 88.5947C166.535 88.5947 166.812 88.334 166.812 87.9919C166.812 87.666 166.551 87.3891 166.209 87.3891C165.883 87.3891 165.606 87.6497 165.606 87.9919C165.606 88.334 165.867 88.5947 166.209 88.5947Z" fill="#393737"/>
<path d="M175.984 88.0244C176 88.0244 176.016 88.0081 176.016 87.9918C176.016 87.9756 176 87.9756 175.984 87.9756C175.967 87.9756 175.951 87.9918 175.951 88.0081C175.951 88.0244 175.967 88.0244 175.984 88.0244Z" fill="#393737"/>
<path d="M9.8076 98.272C10.0846 98.272 10.2964 98.0602 10.2964 97.7832C10.2964 97.5063 10.0846 97.2945 9.8076 97.2945C9.53064 97.2945 9.31885 97.5063 9.31885 97.7832C9.31885 98.0439 9.53064 98.272 9.8076 98.272Z" fill="#393737"/>
<path d="M19.5827 99.0051C20.2575 99.0051 20.8046 98.458 20.8046 97.7832C20.8046 97.1084 20.2575 96.5613 19.5827 96.5613C18.9079 96.5613 18.3608 97.1084 18.3608 97.7832C18.3608 98.458 18.9079 99.0051 19.5827 99.0051Z" fill="#393737"/>
<path d="M29.3578 99.7545C30.4493 99.7545 31.3291 98.8748 31.3291 97.7832C31.3291 96.6917 30.4493 95.8119 29.3578 95.8119C28.2662 95.8119 27.3864 96.6917 27.3864 97.7832C27.3702 98.8748 28.2662 99.7545 29.3578 99.7545Z" fill="#393737"/>
<path d="M39.1328 100.488C40.6317 100.488 41.8373 99.282 41.8373 97.7832C41.8373 96.2844 40.6317 95.0788 39.1328 95.0788C37.634 95.0788 36.4284 96.2844 36.4284 97.7832C36.4121 99.282 37.634 100.488 39.1328 100.488Z" fill="#393737"/>
<path d="M48.9078 101.221C50.8063 101.221 52.3453 99.6817 52.3453 97.7832C52.3453 95.8847 50.8063 94.3457 48.9078 94.3457C47.0093 94.3457 45.4702 95.8847 45.4702 97.7832C45.4702 99.6817 47.0093 101.221 48.9078 101.221Z" fill="#393737"/>
<path d="M58.683 100.944C60.4425 100.944 61.8599 99.5264 61.8599 97.7669C61.8599 96.0074 60.4425 94.59 58.683 94.59C56.9235 94.59 55.5061 96.0074 55.5061 97.7669C55.5061 99.5264 56.9235 100.944 58.683 100.944Z" fill="#393737"/>
<path d="M68.458 100.031C69.6962 100.031 70.7062 99.0214 70.7062 97.7832C70.7062 96.545 69.6962 95.5349 68.458 95.5349C67.2198 95.5349 66.2097 96.545 66.2097 97.7832C66.2097 99.0214 67.2035 100.031 68.458 100.031Z" fill="#393737"/>
<path d="M78.233 99.2169C79.0248 99.2169 79.6667 98.575 79.6667 97.7832C79.6667 96.9914 79.0248 96.3495 78.233 96.3495C77.4412 96.3495 76.7993 96.9914 76.7993 97.7832C76.7993 98.575 77.4412 99.2169 78.233 99.2169Z" fill="#393737"/>
<path d="M88.0081 98.7933C88.566 98.7933 89.0182 98.3411 89.0182 97.7832C89.0182 97.2253 88.566 96.7731 88.0081 96.7731C87.4503 96.7731 86.998 97.2253 86.998 97.7832C86.998 98.3411 87.4503 98.7933 88.0081 98.7933Z" fill="#393737"/>
<path d="M97.7832 99.168C98.549 99.168 99.168 98.5489 99.168 97.7832C99.168 97.0175 98.549 96.3984 97.7832 96.3984C97.0175 96.3984 96.3984 97.0175 96.3984 97.7832C96.3984 98.5489 97.0175 99.168 97.7832 99.168Z" fill="#393737"/>
<path d="M107.558 99.9663C108.764 99.9663 109.758 98.9888 109.758 97.7669C109.758 96.545 108.78 95.5675 107.558 95.5675C106.336 95.5675 105.359 96.545 105.359 97.7669C105.359 98.9888 106.336 99.9663 107.558 99.9663Z" fill="#393737"/>
<path d="M117.333 100.895C119.06 100.895 120.445 99.4938 120.445 97.7832C120.445 96.0563 119.044 94.6715 117.333 94.6715C115.623 94.6715 114.222 96.0726 114.222 97.7832C114.205 99.4938 115.606 100.895 117.333 100.895Z" fill="#393737"/>
<path d="M127.108 101.253C129.031 101.253 130.578 99.7056 130.578 97.7832C130.578 95.8608 129.031 94.313 127.108 94.313C125.186 94.313 123.638 95.8608 123.638 97.7832C123.638 99.6893 125.186 101.253 127.108 101.253Z" fill="#393737"/>
<path d="M136.883 100.537C138.415 100.537 139.653 99.2983 139.653 97.7669C139.653 96.2355 138.415 94.9973 136.883 94.9973C135.352 94.9973 134.114 96.2355 134.114 97.7669C134.114 99.2983 135.352 100.537 136.883 100.537Z" fill="#393737"/>
<path d="M146.659 99.8034C147.783 99.8034 148.695 98.891 148.695 97.7669C148.695 96.6428 147.783 95.7304 146.659 95.7304C145.534 95.7304 144.622 96.6428 144.622 97.7669C144.622 98.9073 145.534 99.8034 146.659 99.8034Z" fill="#393737"/>
<path d="M156.434 99.054C157.134 99.054 157.704 98.4838 157.704 97.7832C157.704 97.0827 157.134 96.5125 156.434 96.5125C155.733 96.5125 155.163 97.0827 155.163 97.7832C155.147 98.4838 155.717 99.054 156.434 99.054Z" fill="#393737"/>
<path d="M166.209 98.3208C166.502 98.3208 166.746 98.0765 166.746 97.7832C166.746 97.49 166.502 97.2456 166.209 97.2456C165.915 97.2456 165.671 97.49 165.671 97.7832C165.655 98.0765 165.899 98.3208 166.209 98.3208Z" fill="#393737"/>
<path d="M175.984 97.7995C176 97.7995 176.016 97.7832 176.016 97.7669C176.016 97.7506 176 97.7506 175.984 97.7506C175.967 97.7506 175.951 97.7669 175.951 97.7832C175.951 97.7995 175.967 97.7995 175.984 97.7995Z" fill="#393737"/>
<path d="M9.80764 107.917C10.0056 107.917 10.1661 107.756 10.1661 107.558C10.1661 107.36 10.0056 107.2 9.80764 107.2C9.60969 107.2 9.44922 107.36 9.44922 107.558C9.44922 107.756 9.60969 107.917 9.80764 107.917Z" fill="#393737"/>
<path d="M19.5828 108.65C20.1856 108.65 20.6743 108.161 20.6743 107.558C20.6743 106.955 20.1856 106.467 19.5828 106.467C18.9799 106.467 18.4912 106.955 18.4912 107.558C18.4912 108.161 18.9799 108.65 19.5828 108.65Z" fill="#393737"/>
<path d="M29.3578 109.35C30.3475 109.35 31.1499 108.548 31.1499 107.558C31.1499 106.569 30.3475 105.766 29.3578 105.766C28.368 105.766 27.5657 106.569 27.5657 107.558C27.5657 108.548 28.368 109.35 29.3578 109.35Z" fill="#393737"/>
<path d="M39.1328 110.051C40.5176 110.051 41.6254 108.927 41.6254 107.558C41.6254 106.173 40.5013 105.066 39.1328 105.066C37.748 105.066 36.6401 106.19 36.6401 107.558C36.6401 108.927 37.748 110.051 39.1328 110.051Z" fill="#393737"/>
<path d="M48.9079 110.751C50.6674 110.751 52.1011 109.318 52.1011 107.558C52.1011 105.799 50.6674 104.365 48.9079 104.365C47.1484 104.365 45.7147 105.799 45.7147 107.558C45.6984 109.318 47.1321 110.751 48.9079 110.751Z" fill="#393737"/>
<path d="M58.6829 111.045C60.6216 111.045 62.1856 109.481 62.1856 107.542C62.1856 105.603 60.6216 104.039 58.6829 104.039C56.7442 104.039 55.1802 105.603 55.1802 107.542C55.1802 109.481 56.7442 111.045 58.6829 111.045Z" fill="#393737"/>
<path d="M68.4581 110.377C70.0221 110.377 71.2766 109.122 71.2766 107.558C71.2766 105.994 70.0221 104.74 68.4581 104.74C66.8941 104.74 65.6396 105.994 65.6396 107.558C65.6396 109.106 66.8941 110.377 68.4581 110.377Z" fill="#393737"/>
<path d="M78.233 109.774C79.4567 109.774 80.4487 108.782 80.4487 107.558C80.4487 106.335 79.4567 105.343 78.233 105.343C77.0093 105.343 76.0173 106.335 76.0173 107.558C76.0173 108.782 77.0093 109.774 78.233 109.774Z" fill="#393737"/>
<path d="M88.0082 109.497C89.0835 109.497 89.9633 108.617 89.9633 107.542C89.9633 106.467 89.0835 105.587 88.0082 105.587C86.933 105.587 86.0532 106.467 86.0532 107.542C86.0532 108.617 86.933 109.497 88.0082 109.497Z" fill="#393737"/>
<path d="M97.7831 109.741C98.9887 109.741 99.9825 108.764 99.9825 107.542C99.9825 106.32 99.005 105.343 97.7831 105.343C96.5613 105.343 95.5837 106.32 95.5837 107.542C95.5837 108.764 96.5613 109.741 97.7831 109.741Z" fill="#393737"/>
<path d="M107.558 110.312C109.09 110.312 110.328 109.073 110.328 107.542C110.328 106.011 109.09 104.772 107.558 104.772C106.027 104.772 104.789 106.011 104.789 107.542C104.789 109.073 106.027 110.312 107.558 110.312Z" fill="#393737"/>
<path d="M117.333 111.028C119.256 111.028 120.804 109.481 120.804 107.558C120.804 105.636 119.256 104.088 117.333 104.088C115.411 104.088 113.863 105.636 113.863 107.558C113.863 109.464 115.411 111.028 117.333 111.028Z" fill="#393737"/>
<path d="M127.108 110.8C128.901 110.8 130.367 109.35 130.367 107.542C130.367 105.75 128.917 104.284 127.108 104.284C125.316 104.284 123.85 105.734 123.85 107.542C123.85 109.35 125.3 110.8 127.108 110.8Z" fill="#393737"/>
<path d="M136.883 110.1C138.285 110.1 139.425 108.959 139.425 107.558C139.425 106.157 138.285 105.017 136.883 105.017C135.482 105.017 134.342 106.157 134.342 107.558C134.326 108.959 135.466 110.1 136.883 110.1Z" fill="#393737"/>
<path d="M146.659 109.399C147.669 109.399 148.5 108.568 148.5 107.558C148.5 106.548 147.669 105.717 146.659 105.717C145.648 105.717 144.818 106.548 144.818 107.558C144.818 108.568 145.632 109.399 146.659 109.399Z" fill="#393737"/>
<path d="M156.434 108.699C157.063 108.699 157.574 108.188 157.574 107.558C157.574 106.928 157.063 106.418 156.434 106.418C155.804 106.418 155.293 106.928 155.293 107.558C155.293 108.188 155.804 108.699 156.434 108.699Z" fill="#393737"/>
<path d="M166.209 107.966C166.437 107.966 166.616 107.786 166.616 107.558C166.616 107.33 166.437 107.151 166.209 107.151C165.98 107.151 165.801 107.33 165.801 107.558C165.801 107.77 165.98 107.966 166.209 107.966Z" fill="#393737"/>
<path d="M9.80769 117.496C9.90544 117.496 9.97061 117.431 9.97061 117.333C9.97061 117.236 9.90544 117.17 9.80769 117.17C9.70994 117.17 9.64478 117.236 9.64478 117.333C9.64478 117.415 9.70994 117.496 9.80769 117.496Z" fill="#393737"/>
<path d="M19.5827 118.148C20.0388 118.148 20.3972 117.789 20.3972 117.333C20.3972 116.877 20.0388 116.519 19.5827 116.519C19.1265 116.519 18.7681 116.877 18.7681 117.333C18.7681 117.773 19.1265 118.148 19.5827 118.148Z" fill="#393737"/>
<path d="M29.3577 118.848C30.1886 118.848 30.8728 118.164 30.8728 117.333C30.8728 116.502 30.1886 115.818 29.3577 115.818C28.5268 115.818 27.8426 116.502 27.8426 117.333C27.8263 118.164 28.5105 118.848 29.3577 118.848Z" fill="#393737"/>
<path d="M39.1329 119.5C40.3385 119.5 41.2997 118.523 41.2997 117.333C41.2997 116.144 40.3222 115.167 39.1329 115.167C37.9436 115.167 36.9661 116.144 36.9661 117.333C36.9661 118.523 37.9273 119.5 39.1329 119.5Z" fill="#393737"/>
<path d="M48.908 120.119C50.4466 120.119 51.6939 118.872 51.6939 117.333C51.6939 115.795 50.4466 114.547 48.908 114.547C47.3694 114.547 46.1221 115.795 46.1221 117.333C46.1221 118.872 47.3694 120.119 48.908 120.119Z" fill="#393737"/>
<path d="M58.683 120.689C60.5365 120.689 62.0391 119.187 62.0391 117.333C62.0391 115.48 60.5365 113.977 58.683 113.977C56.8295 113.977 55.3269 115.48 55.3269 117.333C55.3269 119.187 56.8295 120.689 58.683 120.689Z" fill="#393737"/>
<path d="M68.4581 120.82C70.3968 120.82 71.9608 119.256 71.9608 117.317C71.9608 115.378 70.3968 113.814 68.4581 113.814C66.5193 113.814 64.9553 115.378 64.9553 117.317C64.9553 119.256 66.5193 120.82 68.4581 120.82Z" fill="#393737"/>
<path d="M78.2331 120.445C79.96 120.445 81.3448 119.044 81.3448 117.333C81.3448 115.623 79.9437 114.222 78.2331 114.222C76.5061 114.222 75.1213 115.623 75.1213 117.333C75.1213 119.044 76.5061 120.445 78.2331 120.445Z" fill="#393737"/>
<path d="M88.008 120.282C89.6372 120.282 90.9569 118.963 90.9569 117.333C90.9569 115.704 89.6372 114.385 88.008 114.385C86.3789 114.385 85.0592 115.704 85.0592 117.333C85.0429 118.963 86.3789 120.282 88.008 120.282Z" fill="#393737"/>
<path d="M97.7831 120.445C99.51 120.445 100.895 119.044 100.895 117.333C100.895 115.623 99.4938 114.222 97.7831 114.222C96.0562 114.222 94.6714 115.623 94.6714 117.333C94.6714 119.044 96.0562 120.445 97.7831 120.445Z" fill="#393737"/>
<path d="M107.558 120.803C109.481 120.803 111.028 119.256 111.028 117.333C111.028 115.411 109.481 113.863 107.558 113.863C105.636 113.863 104.088 115.411 104.088 117.333C104.088 119.239 105.636 120.803 107.558 120.803Z" fill="#393737"/>
<path d="M117.333 120.738C119.223 120.738 120.755 119.207 120.755 117.317C120.755 115.427 119.223 113.896 117.333 113.896C115.444 113.896 113.912 115.427 113.912 117.317C113.912 119.207 115.444 120.738 117.333 120.738Z" fill="#393737"/>
<path d="M127.108 120.168C128.672 120.168 129.959 118.897 129.959 117.317C129.959 115.753 128.689 114.466 127.108 114.466C125.544 114.466 124.257 115.737 124.257 117.317C124.257 118.897 125.528 120.168 127.108 120.168Z" fill="#393737"/>
<path d="M136.883 119.549C138.107 119.549 139.099 118.557 139.099 117.333C139.099 116.11 138.107 115.118 136.883 115.118C135.66 115.118 134.668 116.11 134.668 117.333C134.668 118.557 135.66 119.549 136.883 119.549Z" fill="#393737"/>
<path d="M146.658 118.897C147.522 118.897 148.223 118.197 148.223 117.333C148.223 116.47 147.522 115.769 146.658 115.769C145.795 115.769 145.094 116.47 145.094 117.333C145.094 118.197 145.795 118.897 146.658 118.897Z" fill="#393737"/>
<path d="M156.434 118.197C156.91 118.197 157.297 117.81 157.297 117.333C157.297 116.856 156.91 116.47 156.434 116.47C155.957 116.47 155.57 116.856 155.57 117.333C155.57 117.81 155.957 118.197 156.434 118.197Z" fill="#393737"/>
<path d="M166.209 117.545C166.326 117.545 166.42 117.45 166.42 117.333C166.42 117.216 166.326 117.122 166.209 117.122C166.092 117.122 165.997 117.216 165.997 117.333C165.997 117.45 166.092 117.545 166.209 117.545Z" fill="#393737"/>
<path d="M9.80773 127.125C9.82402 127.125 9.84031 127.108 9.84031 127.092C9.84031 127.076 9.82402 127.076 9.80773 127.076C9.79144 127.076 9.77515 127.092 9.77515 127.108C9.77515 127.125 9.79144 127.125 9.80773 127.125Z" fill="#393737"/>
<path d="M19.5827 127.597C19.8597 127.597 20.0715 127.385 20.0715 127.108C20.0715 126.831 19.8597 126.62 19.5827 126.62C19.3058 126.62 19.094 126.831 19.094 127.108C19.094 127.385 19.3058 127.597 19.5827 127.597Z" fill="#393737"/>
<path d="M29.3577 128.249C29.9875 128.249 30.4981 127.738 30.4981 127.108C30.4981 126.479 29.9875 125.968 29.3577 125.968C28.7279 125.968 28.2173 126.479 28.2173 127.108C28.2173 127.738 28.7279 128.249 29.3577 128.249Z" fill="#393737"/>
<path d="M39.1329 128.835C40.0942 128.835 40.8599 128.053 40.8599 127.108C40.8599 126.147 40.0779 125.381 39.1329 125.381C38.1717 125.381 37.406 126.163 37.406 127.108C37.3897 128.053 38.1717 128.835 39.1329 128.835Z" fill="#393737"/>
<path d="M48.908 129.406C50.1767 129.406 51.2051 128.377 51.2051 127.108C51.2051 125.84 50.1767 124.811 48.908 124.811C47.6393 124.811 46.6108 125.84 46.6108 127.108C46.6108 128.377 47.6393 129.406 48.908 129.406Z" fill="#393737"/>
<path d="M58.683 129.927C60.247 129.927 61.5015 128.672 61.5015 127.108C61.5015 125.544 60.247 124.29 58.683 124.29C57.119 124.29 55.8645 125.544 55.8645 127.108C55.8645 128.656 57.119 129.927 58.683 129.927Z" fill="#393737"/>
<path d="M68.4579 130.334C70.2395 130.334 71.6837 128.89 71.6837 127.108C71.6837 125.327 70.2395 123.883 68.4579 123.883C66.6764 123.883 65.2322 125.327 65.2322 127.108C65.2322 128.89 66.6764 130.334 68.4579 130.334Z" fill="#393737"/>
<path d="M78.2331 130.579C80.1555 130.579 81.7032 129.031 81.7032 127.108C81.7032 125.186 80.1555 123.638 78.2331 123.638C76.3107 123.638 74.7629 125.186 74.7629 127.108C74.7629 129.015 76.3107 130.579 78.2331 130.579Z" fill="#393737"/>
<path d="M88.0082 130.627C89.9469 130.627 91.5272 129.047 91.5272 127.108C91.5272 125.17 89.9469 123.589 88.0082 123.589C86.0694 123.589 84.4891 125.17 84.4891 127.108C84.4728 129.047 86.0531 130.627 88.0082 130.627Z" fill="#393737"/>
<path d="M97.7831 130.579C99.7056 130.579 101.253 129.031 101.253 127.108C101.253 125.186 99.7056 123.638 97.7831 123.638C95.8607 123.638 94.313 125.186 94.313 127.108C94.313 129.015 95.8607 130.579 97.7831 130.579Z" fill="#393737"/>
<path d="M107.558 130.35C109.35 130.35 110.817 128.9 110.817 127.092C110.817 125.3 109.367 123.834 107.558 123.834C105.766 123.834 104.3 125.284 104.3 127.092C104.3 128.9 105.75 130.35 107.558 130.35Z" fill="#393737"/>
<path d="M117.333 129.943C118.897 129.943 120.184 128.672 120.184 127.092C120.184 125.528 118.914 124.241 117.333 124.241C115.769 124.241 114.482 125.512 114.482 127.092C114.482 128.672 115.753 129.943 117.333 129.943Z" fill="#393737"/>
<path d="M127.108 129.471C128.413 129.471 129.471 128.413 129.471 127.108C129.471 125.804 128.413 124.746 127.108 124.746C125.804 124.746 124.746 125.804 124.746 127.108C124.746 128.413 125.804 129.471 127.108 129.471Z" fill="#393737"/>
<path d="M136.883 128.9C137.873 128.9 138.676 128.098 138.676 127.108C138.676 126.119 137.873 125.316 136.883 125.316C135.894 125.316 135.091 126.119 135.091 127.108C135.091 128.098 135.894 128.9 136.883 128.9Z" fill="#393737"/>
<path d="M146.658 128.298C147.31 128.298 147.848 127.76 147.848 127.108C147.848 126.457 147.31 125.919 146.658 125.919C146.007 125.919 145.469 126.457 145.469 127.108C145.453 127.76 145.99 128.298 146.658 128.298Z" fill="#393737"/>
<path d="M156.434 127.646C156.727 127.646 156.971 127.402 156.971 127.108C156.971 126.815 156.727 126.571 156.434 126.571C156.14 126.571 155.896 126.815 155.896 127.108C155.88 127.402 156.124 127.646 156.434 127.646Z" fill="#393737"/>
<path d="M166.209 127.157C166.241 127.157 166.258 127.141 166.258 127.108C166.258 127.076 166.241 127.06 166.209 127.06C166.176 127.06 166.16 127.076 166.16 127.108C166.144 127.141 166.176 127.157 166.209 127.157Z" fill="#393737"/>
<path d="M19.5827 137.014C19.6547 137.014 19.7131 136.955 19.7131 136.883C19.7131 136.811 19.6547 136.753 19.5827 136.753C19.5107 136.753 19.4524 136.811 19.4524 136.883C19.4524 136.955 19.5107 137.014 19.5827 137.014Z" fill="#393737"/>
<path d="M29.3578 137.551C29.7325 137.551 30.0421 137.242 30.0421 136.867C30.0421 136.492 29.7325 136.183 29.3578 136.183C28.9831 136.183 28.6736 136.492 28.6736 136.867C28.6736 137.258 28.9831 137.551 29.3578 137.551Z" fill="#393737"/>
<path d="M39.1329 138.122C39.8171 138.122 40.3874 137.568 40.3874 136.867C40.3874 136.183 39.8334 135.613 39.1329 135.613C38.4486 135.613 37.8784 136.167 37.8784 136.867C37.8784 137.568 38.4323 138.122 39.1329 138.122Z" fill="#393737"/>
<path d="M48.908 138.643C49.8855 138.643 50.6675 137.861 50.6675 136.883C50.6675 135.906 49.8855 135.124 48.908 135.124C47.9304 135.124 47.1484 135.906 47.1484 136.883C47.1484 137.845 47.9304 138.643 48.908 138.643Z" fill="#393737"/>
<path d="M58.683 139.067C59.8886 139.067 60.8824 138.089 60.8824 136.867C60.8824 135.645 59.9049 134.668 58.683 134.668C57.4612 134.668 56.4836 135.645 56.4836 136.867C56.4836 138.089 57.4612 139.067 58.683 139.067Z" fill="#393737"/>
<path d="M68.4581 139.392C69.8429 139.392 70.9833 138.268 70.9833 136.867C70.9833 135.482 69.8592 134.342 68.4581 134.342C67.0733 134.342 65.9329 135.466 65.9329 136.867C65.9329 138.268 67.057 139.392 68.4581 139.392Z" fill="#393737"/>
<path d="M78.233 139.637C79.7644 139.637 81.0026 138.399 81.0026 136.867C81.0026 135.336 79.7644 134.098 78.233 134.098C76.7016 134.098 75.4634 135.336 75.4634 136.867C75.4634 138.399 76.7016 139.637 78.233 139.637Z" fill="#393737"/>
<path d="M88.008 139.718C89.572 139.718 90.8591 138.447 90.8591 136.867C90.8591 135.303 89.5883 134.016 88.008 134.016C86.444 134.016 85.157 135.287 85.157 136.867C85.157 138.447 86.4277 139.718 88.008 139.718Z" fill="#393737"/>
<path d="M97.7833 139.637C99.3147 139.637 100.553 138.399 100.553 136.867C100.553 135.336 99.3147 134.098 97.7833 134.098C96.2518 134.098 95.0137 135.336 95.0137 136.867C95.0137 138.399 96.2518 139.637 97.7833 139.637Z" fill="#393737"/>
<path d="M107.558 139.425C108.959 139.425 110.1 138.285 110.1 136.883C110.1 135.482 108.959 134.342 107.558 134.342C106.157 134.342 105.017 135.482 105.017 136.883C105 138.285 106.141 139.425 107.558 139.425Z" fill="#393737"/>
<path d="M117.333 139.099C118.557 139.099 119.549 138.107 119.549 136.883C119.549 135.66 118.557 134.668 117.333 134.668C116.11 134.668 115.118 135.66 115.118 136.883C115.118 138.107 116.11 139.099 117.333 139.099Z" fill="#393737"/>
<path d="M127.108 138.676C128.098 138.676 128.901 137.873 128.901 136.883C128.901 135.894 128.098 135.091 127.108 135.091C126.119 135.091 125.316 135.894 125.316 136.883C125.316 137.873 126.119 138.676 127.108 138.676Z" fill="#393737"/>
<path d="M136.883 138.187C137.6 138.187 138.187 137.6 138.187 136.883C138.187 136.167 137.6 135.58 136.883 135.58C136.167 135.58 135.58 136.167 135.58 136.883C135.58 137.6 136.167 138.187 136.883 138.187Z" fill="#393737"/>
<path d="M146.658 137.617C147.066 137.617 147.392 137.291 147.392 136.883C147.392 136.476 147.066 136.15 146.658 136.15C146.251 136.15 145.925 136.476 145.925 136.883C145.925 137.291 146.251 137.617 146.658 137.617Z" fill="#393737"/>
<path d="M156.434 137.046C156.531 137.046 156.597 136.981 156.597 136.883C156.597 136.786 156.531 136.721 156.434 136.721C156.336 136.721 156.271 136.786 156.271 136.883C156.271 136.965 156.336 137.046 156.434 137.046Z" fill="#393737"/>
<path d="M29.3578 146.87C29.4748 146.87 29.5696 146.775 29.5696 146.659C29.5696 146.542 29.4748 146.447 29.3578 146.447C29.2408 146.447 29.146 146.542 29.146 146.659C29.146 146.775 29.2408 146.87 29.3578 146.87Z" fill="#393737"/>
<path d="M39.1329 147.359C39.5239 147.359 39.8335 147.05 39.8335 146.659C39.8335 146.268 39.5239 145.958 39.1329 145.958C38.7419 145.958 38.4324 146.268 38.4324 146.659C38.4324 147.05 38.7419 147.359 39.1329 147.359Z" fill="#393737"/>
<path d="M48.908 147.799C49.5378 147.799 50.0484 147.288 50.0484 146.659C50.0484 146.029 49.5378 145.518 48.908 145.518C48.2782 145.518 47.7676 146.029 47.7676 146.659C47.7676 147.288 48.2782 147.799 48.908 147.799Z" fill="#393737"/>
<path d="M58.683 148.19C59.5301 148.19 60.2307 147.506 60.2307 146.642C60.2307 145.795 59.5464 145.095 58.683 145.095C57.8358 145.095 57.1353 145.779 57.1353 146.642C57.1353 147.506 57.8195 148.19 58.683 148.19Z" fill="#393737"/>
<path d="M68.4582 148.499C69.4682 148.499 70.2991 147.669 70.2991 146.659C70.2991 145.648 69.4682 144.818 68.4582 144.818C67.4481 144.818 66.6172 145.648 66.6172 146.659C66.6172 147.669 67.4318 148.499 68.4582 148.499Z" fill="#393737"/>
<path d="M78.233 148.679C79.3571 148.679 80.2695 147.766 80.2695 146.642C80.2695 145.518 79.3571 144.606 78.233 144.606C77.1089 144.606 76.1965 145.518 76.1965 146.642C76.1965 147.783 77.1089 148.679 78.233 148.679Z" fill="#393737"/>
<path d="M88.0082 148.744C89.1599 148.744 90.0935 147.81 90.0935 146.659C90.0935 145.507 89.1599 144.573 88.0082 144.573C86.8565 144.573 85.9229 145.507 85.9229 146.659C85.9229 147.81 86.8565 148.744 88.0082 148.744Z" fill="#393737"/>
<path d="M97.7833 148.679C98.9074 148.679 99.8198 147.766 99.8198 146.642C99.8198 145.518 98.9074 144.606 97.7833 144.606C96.6592 144.606 95.7468 145.518 95.7468 146.642C95.7468 147.783 96.6592 148.679 97.7833 148.679Z" fill="#393737"/>
<path d="M107.558 148.499C108.568 148.499 109.399 147.669 109.399 146.659C109.399 145.648 108.568 144.818 107.558 144.818C106.548 144.818 105.717 145.648 105.717 146.659C105.717 147.669 106.532 148.499 107.558 148.499Z" fill="#393737"/>
<path d="M117.333 148.223C118.197 148.223 118.897 147.522 118.897 146.659C118.897 145.795 118.197 145.095 117.333 145.095C116.47 145.095 115.769 145.795 115.769 146.659C115.769 147.522 116.47 148.223 117.333 148.223Z" fill="#393737"/>
<path d="M127.108 147.848C127.76 147.848 128.298 147.31 128.298 146.659C128.298 146.007 127.76 145.469 127.108 145.469C126.457 145.469 125.919 146.007 125.919 146.659C125.903 147.31 126.44 147.848 127.108 147.848Z" fill="#393737"/>
<path d="M136.884 147.392C137.291 147.392 137.617 147.066 137.617 146.659C137.617 146.251 137.291 145.925 136.884 145.925C136.476 145.925 136.15 146.251 136.15 146.659C136.15 147.066 136.476 147.392 136.884 147.392Z" fill="#393737"/>
<path d="M146.658 146.903C146.789 146.903 146.903 146.789 146.903 146.659C146.903 146.528 146.789 146.414 146.658 146.414C146.528 146.414 146.414 146.528 146.414 146.659C146.414 146.789 146.512 146.903 146.658 146.903Z" fill="#393737"/>
<path d="M39.1328 156.564C39.2048 156.564 39.2631 156.506 39.2631 156.434C39.2631 156.362 39.2048 156.303 39.1328 156.303C39.0608 156.303 39.0024 156.362 39.0024 156.434C39.0024 156.506 39.0608 156.564 39.1328 156.564Z" fill="#393737"/>
<path d="M48.9078 156.939C49.1848 156.939 49.4291 156.711 49.4291 156.417C49.4291 156.124 49.2011 155.896 48.9078 155.896C48.6309 155.896 48.3865 156.124 48.3865 156.417C48.3865 156.711 48.6146 156.939 48.9078 156.939Z" fill="#393737"/>
<path d="M58.683 157.297C59.1599 157.297 59.5465 156.91 59.5465 156.434C59.5465 155.957 59.1599 155.57 58.683 155.57C58.2062 155.57 57.8196 155.957 57.8196 156.434C57.8196 156.91 58.2062 157.297 58.683 157.297Z" fill="#393737"/>
<path d="M68.4581 157.541C69.0772 157.541 69.5659 157.036 69.5659 156.434C69.5659 155.814 69.0609 155.326 68.4581 155.326C67.839 155.326 67.3502 155.831 67.3502 156.434C67.3339 157.036 67.839 157.541 68.4581 157.541Z" fill="#393737"/>
<path d="M78.233 157.704C78.9336 157.704 79.5038 157.134 79.5038 156.434C79.5038 155.733 78.9336 155.163 78.233 155.163C77.5325 155.163 76.9623 155.733 76.9623 156.434C76.946 157.134 77.5162 157.704 78.233 157.704Z" fill="#393737"/>
<path d="M88.008 157.753C88.7412 157.753 89.344 157.167 89.344 156.417C89.344 155.684 88.7412 155.081 88.008 155.081C87.2749 155.081 86.6721 155.668 86.6721 156.417C86.6721 157.167 87.2749 157.753 88.008 157.753Z" fill="#393737"/>
<path d="M97.7833 157.704C98.4839 157.704 99.0541 157.134 99.0541 156.434C99.0541 155.733 98.4839 155.163 97.7833 155.163C97.0828 155.163 96.5125 155.733 96.5125 156.434C96.4963 157.134 97.0665 157.704 97.7833 157.704Z" fill="#393737"/>
<path d="M107.558 157.574C108.188 157.574 108.699 157.063 108.699 156.434C108.699 155.804 108.188 155.293 107.558 155.293C106.929 155.293 106.418 155.804 106.418 156.434C106.418 157.063 106.929 157.574 107.558 157.574Z" fill="#393737"/>
<path d="M117.333 157.297C117.81 157.297 118.197 156.91 118.197 156.434C118.197 155.957 117.81 155.57 117.333 155.57C116.857 155.57 116.47 155.957 116.47 156.434C116.47 156.91 116.857 157.297 117.333 157.297Z" fill="#393737"/>
<path d="M127.108 156.971C127.402 156.971 127.646 156.727 127.646 156.434C127.646 156.14 127.402 155.896 127.108 155.896C126.815 155.896 126.571 156.14 126.571 156.434C126.555 156.727 126.799 156.971 127.108 156.971Z" fill="#393737"/>
<path d="M136.883 156.596C136.981 156.596 137.046 156.531 137.046 156.434C137.046 156.336 136.981 156.271 136.883 156.271C136.786 156.271 136.72 156.336 136.72 156.434C136.72 156.515 136.786 156.596 136.883 156.596Z" fill="#393737"/>
<path d="M48.9078 166.225C48.9241 166.225 48.9404 166.209 48.9404 166.192C48.9404 166.176 48.9241 166.176 48.9078 166.176C48.8915 166.176 48.8752 166.192 48.8752 166.209C48.8752 166.225 48.8915 166.225 48.9078 166.225Z" fill="#393737"/>
<path d="M58.683 166.388C58.7808 166.388 58.8785 166.306 58.8785 166.192C58.8785 166.095 58.7971 165.997 58.683 165.997C58.569 165.997 58.4875 166.078 58.4875 166.192C58.4875 166.306 58.569 166.388 58.683 166.388Z" fill="#393737"/>
<path d="M68.458 166.583C68.6698 166.583 68.8327 166.42 68.8327 166.209C68.8327 165.997 68.6698 165.834 68.458 165.834C68.2462 165.834 68.0833 165.997 68.0833 166.209C68.067 166.42 68.2462 166.583 68.458 166.583Z" fill="#393737"/>
<path d="M78.233 166.746C78.5262 166.746 78.7706 166.502 78.7706 166.209C78.7706 165.915 78.5262 165.671 78.233 165.671C77.9397 165.671 77.6953 165.915 77.6953 166.209C77.6791 166.502 77.9234 166.746 78.233 166.746Z" fill="#393737"/>
<path d="M88.0081 166.795C88.3339 166.795 88.6109 166.534 88.6109 166.192C88.6109 165.867 88.3502 165.59 88.0081 165.59C87.6822 165.59 87.4053 165.85 87.4053 166.192C87.4053 166.534 87.6659 166.795 88.0081 166.795Z" fill="#393737"/>
<path d="M97.7833 166.746C98.0765 166.746 98.3209 166.502 98.3209 166.209C98.3209 165.915 98.0765 165.671 97.7833 165.671C97.49 165.671 97.2456 165.915 97.2456 166.209C97.2294 166.502 97.4737 166.746 97.7833 166.746Z" fill="#393737"/>
<path d="M107.558 166.616C107.786 166.616 107.965 166.437 107.965 166.209C107.965 165.981 107.786 165.801 107.558 165.801C107.33 165.801 107.151 165.981 107.151 166.209C107.151 166.42 107.33 166.616 107.558 166.616Z" fill="#393737"/>
<path d="M117.333 166.42C117.45 166.42 117.545 166.326 117.545 166.209C117.545 166.092 117.45 165.997 117.333 165.997C117.216 165.997 117.122 166.092 117.122 166.209C117.122 166.326 117.216 166.42 117.333 166.42Z" fill="#393737"/>
<path d="M127.108 166.258C127.141 166.258 127.157 166.241 127.157 166.209C127.157 166.176 127.141 166.16 127.108 166.16C127.076 166.16 127.06 166.176 127.06 166.209C127.043 166.241 127.076 166.258 127.108 166.258Z" fill="#393737"/>
<path d="M78.233 176C78.2493 176 78.2656 175.984 78.2656 175.967C78.2656 175.951 78.2493 175.951 78.233 175.951C78.2167 175.951 78.2004 175.967 78.2004 175.984C78.2004 176 78.2167 176 78.233 176Z" fill="#393737"/>
<path d="M88.0082 176C88.0245 176 88.0408 175.984 88.0408 175.967C88.0408 175.951 88.0245 175.951 88.0082 175.951C87.9919 175.951 87.9756 175.967 87.9756 175.984C87.9756 176 87.9919 176 88.0082 176Z" fill="#393737"/>
<path d="M97.7833 176C97.7996 176 97.8159 175.984 97.8159 175.967C97.8159 175.951 97.7996 175.951 97.7833 175.951C97.767 175.951 97.7507 175.967 97.7507 175.984C97.7507 176 97.767 176 97.7833 176Z" fill="#393737"/>
</g>
<defs>
<clipPath id="clip0">
<rect width="176" height="176" fill="white"/>
</clipPath>
</defs>
</svg>
