<svg width="133" height="59" viewBox="0 0 133 59" fill="none" xmlns="http://www.w3.org/2000/svg">
<path d="M39 17.9137L67.1704 3L94.5122 17.9137" stroke="#F8DA46" stroke-width="4"/>
<path d="M45 44.427V56.8551H88.9127V46.0841" stroke="#F8DA46" stroke-width="4"/>
<path d="M2.1 39C1.95333 39 1.82667 38.9467 1.72 38.84C1.61333 38.7333 1.56 38.6067 1.56 38.46V25.54C1.56 25.3933 1.61333 25.2667 1.72 25.16C1.82667 25.0533 1.95333 25 2.1 25H10.84C10.9867 25 11.1133 25.0533 11.22 25.16C11.3267 25.2667 11.38 25.3933 11.38 25.54V26.96C11.38 27.1067 11.3267 27.2333 11.22 27.34C11.1133 27.4467 10.9867 27.5 10.84 27.5H4.26V30.52H8.04C8.68 30.52 9.26 30.6267 9.78 30.84C10.3 31.04 10.74 31.3267 11.1 31.7C11.4733 32.06 11.76 32.5 11.96 33.02C12.1733 33.54 12.28 34.12 12.28 34.76C12.28 35.3467 12.1867 35.9 12 36.42C11.8133 36.9267 11.54 37.3733 11.18 37.76C10.82 38.1467 10.3733 38.4533 9.84 38.68C9.32 38.8933 8.72 39 8.04 39H2.1ZM4.26 36.5H7.62C8.3 36.5 8.79333 36.3333 9.1 36C9.42 35.6533 9.58 35.24 9.58 34.76C9.58 34.28 9.42 33.8733 9.1 33.54C8.79333 33.1933 8.3 33.02 7.62 33.02H4.26V36.5ZM20.9911 25C21.2044 25 21.3644 25.06 21.4711 25.18C21.5778 25.2867 21.6711 25.4533 21.7511 25.68L26.6511 38.32C26.6644 38.36 26.6711 38.4067 26.6711 38.46C26.6711 38.6067 26.6178 38.7333 26.5111 38.84C26.4044 38.9467 26.2778 39 26.1311 39H24.6911C24.4244 39 24.2378 38.9467 24.1311 38.84C24.0244 38.72 23.9511 38.6067 23.9111 38.5L23.0511 36.28H16.7311L15.8711 38.5C15.8311 38.6067 15.7578 38.72 15.6511 38.84C15.5444 38.9467 15.3578 39 15.0911 39H13.6511C13.5044 39 13.3778 38.9467 13.2711 38.84C13.1644 38.7333 13.1111 38.6067 13.1111 38.46C13.1111 38.4067 13.1178 38.36 13.1311 38.32L18.0311 25.68C18.1111 25.4533 18.2044 25.2867 18.3111 25.18C18.4178 25.06 18.5778 25 18.7911 25H20.9911ZM22.0911 33.78L19.8911 28.08L17.6911 33.78H22.0911ZM32.3341 27.5V35.1C32.3341 35.7 32.2474 36.2533 32.0741 36.76C31.9141 37.2533 31.6674 37.6867 31.3341 38.06C31.0007 38.42 30.5741 38.7 30.0541 38.9C29.5474 39.1 28.9541 39.2 28.2741 39.2H27.7741C27.6274 39.2 27.5007 39.1467 27.3941 39.04C27.2874 38.9333 27.2341 38.8067 27.2341 38.66V37.24C27.2341 37.0933 27.2874 36.9667 27.3941 36.86C27.5007 36.7533 27.6274 36.7 27.7741 36.7H27.9741C28.5074 36.7 28.9141 36.54 29.1941 36.22C29.4874 35.9 29.6341 35.4733 29.6341 34.94V25.54C29.6341 25.3933 29.6874 25.2667 29.7941 25.16C29.9007 25.0533 30.0274 25 30.1741 25H39.2541C39.4007 25 39.5274 25.0533 39.6341 25.16C39.7407 25.2667 39.7941 25.3933 39.7941 25.54V38.46C39.7941 38.6067 39.7407 38.7333 39.6341 38.84C39.5274 38.9467 39.4007 39 39.2541 39H37.6341C37.4874 39 37.3607 38.9467 37.2541 38.84C37.1474 38.7333 37.0941 38.6067 37.0941 38.46V27.5H32.3341ZM52.2277 25C52.3743 25 52.501 25.0533 52.6077 25.16C52.7143 25.2667 52.7677 25.3933 52.7677 25.54V26.96C52.7677 27.1067 52.7143 27.2333 52.6077 27.34C52.501 27.4467 52.3743 27.5 52.2277 27.5H48.6277V38.46C48.6277 38.6067 48.5743 38.7333 48.4677 38.84C48.361 38.9467 48.2343 39 48.0877 39H46.4677C46.321 39 46.1943 38.9467 46.0877 38.84C45.981 38.7333 45.9277 38.6067 45.9277 38.46V27.5H42.3277C42.181 27.5 42.0543 27.4467 41.9477 27.34C41.841 27.2333 41.7877 27.1067 41.7877 26.96V25.54C41.7877 25.3933 41.841 25.2667 41.9477 25.16C42.0543 25.0533 42.181 25 42.3277 25H52.2277ZM60.6631 25C62.2765 25 63.5298 25.38 64.4231 26.14C65.3165 26.9 65.7631 28.0133 65.7631 29.48C65.7631 30.9467 65.3165 32.0667 64.4231 32.84C63.5298 33.6133 62.2765 34 60.6631 34H57.4631V38.46C57.4631 38.6067 57.4098 38.7333 57.3031 38.84C57.1965 38.9467 57.0698 39 56.9231 39H55.3031C55.1565 39 55.0298 38.9467 54.9231 38.84C54.8165 38.7333 54.7631 38.6067 54.7631 38.46V25.54C54.7631 25.3933 54.8165 25.2667 54.9231 25.16C55.0298 25.0533 55.1565 25 55.3031 25H60.6631ZM57.4631 31.5H60.5631C61.3231 31.5 61.9298 31.3533 62.3831 31.06C62.8365 30.7533 63.0631 30.2267 63.0631 29.48C63.0631 28.7333 62.8365 28.22 62.3831 27.94C61.9298 27.6467 61.3231 27.5 60.5631 27.5H57.4631V31.5ZM77.2667 36.5C77.4134 36.5 77.5401 36.5533 77.6467 36.66C77.7534 36.7667 77.8067 36.8933 77.8067 37.04V38.46C77.8067 38.6067 77.7534 38.7333 77.6467 38.84C77.5401 38.9467 77.4134 39 77.2667 39H68.4867C68.3401 39 68.2134 38.9467 68.1067 38.84C68.0001 38.7333 67.9467 38.6067 67.9467 38.46V25.54C67.9467 25.3933 68.0001 25.2667 68.1067 25.16C68.2134 25.0533 68.3401 25 68.4867 25H77.1067C77.2534 25 77.3801 25.0533 77.4867 25.16C77.5934 25.2667 77.6467 25.3933 77.6467 25.54V26.96C77.6467 27.1067 77.5934 27.2333 77.4867 27.34C77.3801 27.4467 77.2534 27.5 77.1067 27.5H70.6467V30.68H76.6667C76.8134 30.68 76.9401 30.7333 77.0467 30.84C77.1534 30.9467 77.2067 31.0733 77.2067 31.22V32.64C77.2067 32.7867 77.1534 32.9133 77.0467 33.02C76.9401 33.1267 76.8134 33.18 76.6667 33.18H70.6467V36.5H77.2667ZM89.4705 25C89.6171 25 89.7438 25.0533 89.8505 25.16C89.9571 25.2667 90.0105 25.3933 90.0105 25.54V26.96C90.0105 27.1067 89.9571 27.2333 89.8505 27.34C89.7438 27.4467 89.6171 27.5 89.4705 27.5H82.9905V38.46C82.9905 38.6067 82.9371 38.7333 82.8305 38.84C82.7238 38.9467 82.5971 39 82.4505 39H80.8305C80.6838 39 80.5571 38.9467 80.4505 38.84C80.3438 38.7333 80.2905 38.6067 80.2905 38.46V25.54C80.2905 25.3933 80.3438 25.2667 80.4505 25.16C80.5571 25.0533 80.6838 25 80.8305 25H89.4705ZM93.8516 39C94.0782 39 94.2516 38.94 94.3716 38.82C94.4916 38.7 94.5782 38.6067 94.6316 38.54L100.232 30.22V38.46C100.232 38.6067 100.285 38.7333 100.392 38.84C100.498 38.9467 100.625 39 100.772 39H102.392C102.538 39 102.665 38.9467 102.772 38.84C102.878 38.7333 102.932 38.6067 102.932 38.46V25.54C102.932 25.3933 102.878 25.2667 102.772 25.16C102.665 25.0533 102.538 25 102.392 25H100.992C100.765 25 100.592 25.06 100.472 25.18C100.352 25.3 100.265 25.3933 100.212 25.46L94.6116 33.78V25.54C94.6116 25.3933 94.5582 25.2667 94.4516 25.16C94.3449 25.0533 94.2182 25 94.0716 25H92.4516C92.3049 25 92.1782 25.0533 92.0716 25.16C91.9649 25.2667 91.9116 25.3933 91.9116 25.54V38.46C91.9116 38.6067 91.9649 38.7333 92.0716 38.84C92.1782 38.9467 92.3049 39 92.4516 39H93.8516ZM105.572 30.22C105.612 29.4733 105.752 28.7733 105.992 28.12C106.246 27.4533 106.612 26.88 107.092 26.4C107.572 25.9067 108.172 25.52 108.892 25.24C109.612 24.9467 110.466 24.8 111.452 24.8C112.426 24.8 113.272 24.94 113.992 25.22C114.712 25.5 115.312 25.8867 115.792 26.38C116.272 26.8733 116.639 27.4467 116.892 28.1C117.146 28.7533 117.292 29.46 117.332 30.22C117.346 30.4733 117.352 30.7533 117.352 31.06C117.366 31.3667 117.372 31.6867 117.372 32.02C117.372 32.34 117.366 32.6533 117.352 32.96C117.352 33.2667 117.346 33.5467 117.332 33.8C117.292 34.5467 117.146 35.2533 116.892 35.92C116.652 36.5733 116.292 37.1467 115.812 37.64C115.332 38.12 114.726 38.5 113.992 38.78C113.272 39.06 112.426 39.2 111.452 39.2C110.466 39.2 109.612 39.06 108.892 38.78C108.172 38.5 107.572 38.12 107.092 37.64C106.612 37.1467 106.246 36.5733 105.992 35.92C105.752 35.2533 105.612 34.5467 105.572 33.8C105.559 33.5467 105.546 33.2667 105.532 32.96C105.532 32.6533 105.532 32.34 105.532 32.02C105.532 31.6867 105.532 31.3667 105.532 31.06C105.546 30.7533 105.559 30.4733 105.572 30.22ZM114.632 30.32C114.579 29.36 114.266 28.62 113.692 28.1C113.132 27.5667 112.386 27.3 111.452 27.3C110.519 27.3 109.766 27.5667 109.192 28.1C108.632 28.62 108.326 29.36 108.272 30.32C108.246 30.8267 108.232 31.3933 108.232 32.02C108.232 32.6333 108.246 33.1933 108.272 33.7C108.326 34.66 108.632 35.4 109.192 35.92C109.766 36.44 110.519 36.7 111.452 36.7C112.386 36.7 113.132 36.44 113.692 35.92C114.266 35.4 114.579 34.66 114.632 33.7C114.659 33.1933 114.672 32.6333 114.672 32.02C114.672 31.3933 114.659 30.8267 114.632 30.32ZM130.878 25C131.025 25 131.151 25.0533 131.258 25.16C131.365 25.2667 131.418 25.3933 131.418 25.54V38.46C131.418 38.6067 131.365 38.7333 131.258 38.84C131.151 38.9467 131.025 39 130.878 39H129.258C129.111 39 128.985 38.9467 128.878 38.84C128.771 38.7333 128.718 38.6067 128.718 38.46V33.18H122.678V38.46C122.678 38.6067 122.625 38.7333 122.518 38.84C122.411 38.9467 122.285 39 122.138 39H120.518C120.371 39 120.245 38.9533 120.138 38.86C120.031 38.7533 119.978 38.62 119.978 38.46V25.54C119.978 25.3933 120.031 25.2667 120.138 25.16C120.245 25.0533 120.371 25 120.518 25H122.138C122.285 25 122.411 25.0533 122.518 25.16C122.625 25.2667 122.678 25.3933 122.678 25.54V30.68H128.718V25.54C128.718 25.3933 128.771 25.2667 128.878 25.16C128.985 25.0533 129.111 25 129.258 25H130.878Z" fill="white"/>
</svg>
