<svg width="70" height="15" viewBox="0 0 70 15" fill="none" xmlns="http://www.w3.org/2000/svg">
<path fill-rule="evenodd" clip-rule="evenodd" d="M6.5869 4.81031H4.18254L3.7136 9.47831H6.09627L6.5869 4.81031ZM7.38112 4.81031L6.8932 9.47831H9.77192L9.71228 10.1761H6.83086L6.34294 14.7401H5.54871L6.03663 10.1761H3.63228L3.16334 14.7401H2.36911L2.85703 10.1761H0L0.0596345 9.47831H2.91667L3.40459 4.81031H0.528578L0.588213 4.10984H3.46964L3.85726 0.328369H4.65149L4.26386 4.11257H6.64653L7.03415 0.328369H7.82838L7.44075 4.11257H10.3195L10.2571 4.81305L7.38112 4.81031Z" fill="#D02426"/>
<path d="M12.0352 14.8332V0.166992H15.6458C17.9146 0.166992 19.0503 1.3764 19.0503 3.79249V11.2077C19.0503 13.6238 17.9146 14.8332 15.6458 14.8332H12.0352ZM15.6051 2.26294H14.3175V12.7372H15.6051C16.3803 12.7372 16.768 12.2611 16.768 11.3116V3.68578C16.768 2.73631 16.3803 2.26294 15.6051 2.26294Z" fill="#D02426"/>
<path d="M20.5034 14.8332V0.166992H22.7858V14.8332H20.5034Z" fill="#D02426"/>
<path d="M26.7299 2.26294V6.34813H29.8634V8.44135H26.7299V12.7372H30.6739V14.8332H24.4475V0.166992H30.6739V2.26294H26.7299Z" fill="#D02426"/>
<path d="M31.9397 0.166992H38.4154V2.2219L34.0757 12.7372H38.4154V14.8332H31.731V12.7783L36.068 2.26294H31.9397V0.166992Z" fill="#D02426"/>
<path d="M39.0986 2.26294V0.166992H46.1545V2.26294H43.7691V14.8332H41.4867V2.26294H39.0986Z" fill="#D02426"/>
<path d="M49.4342 2.26294V6.34813H52.5677V8.44135H49.4342V12.7372H53.3782V14.8332H47.1519V0.166992H53.3782V2.26294H49.4342Z" fill="#D02426"/>
<path d="M59.2496 9.36337H61.4073V11.3116C61.4073 12.4991 61.1173 13.4103 60.5345 14.0451C59.9544 14.6799 59.1087 14.9973 58.0027 14.9973C56.8968 14.9973 56.0511 14.6799 55.471 14.0451C54.8909 13.4103 54.5981 12.4991 54.5981 11.3116V3.6857C54.5981 2.49818 54.8882 1.58701 55.471 0.952207C56.0511 0.317402 56.8968 0 58.0027 0C59.1087 0 59.9544 0.317402 60.5345 0.952207C61.1146 1.58701 61.4073 2.49818 61.4073 3.6857V5.11127H59.2496V3.54068C59.2496 2.57753 58.8566 2.09595 58.0678 2.09595C57.279 2.09595 56.8859 2.57753 56.8859 3.54068V11.4593C56.8859 12.4088 57.279 12.8849 58.0678 12.8849C58.8566 12.8849 59.2496 12.4088 59.2496 11.4593V9.36337Z" fill="#D02426"/>
<path d="M65.0829 8.54806V14.8332H62.8005V0.166992H65.0829V6.45211H67.677V0.166992H70.0001V14.8332H67.677V8.54806H65.0829Z" fill="#D02426"/>
</svg>
