<svg width="17" height="16" viewBox="0 0 17 16" fill="none" xmlns="http://www.w3.org/2000/svg">
<path d="M13.0004 15.9958C12.3309 15.9744 11.7831 15.819 11.242 15.6435C9.08539 14.9453 7.12057 13.8854 5.3559 12.4596C2.91194 10.4843 1.16366 8.01418 0.119037 5.04035C-0.0890917 4.44825 -0.00362616 3.89435 0.216016 3.34356C0.536622 2.53914 1.05606 1.86442 1.63262 1.23013C1.97227 0.856121 2.34335 0.514986 2.72374 0.184067C3.02132 -0.0744492 3.37514 -0.0602353 3.65634 0.224044C4.62745 1.20747 5.50469 2.2713 6.32127 3.38576C6.49618 3.62429 6.45766 3.94188 6.22739 4.13022C5.6247 4.62282 5.07781 5.1705 4.60088 5.78703C4.38434 6.06687 4.37814 6.27608 4.58804 6.5688C4.9981 7.14091 5.41657 7.70636 5.87932 8.23716C6.93901 9.4529 8.13774 10.503 9.5384 11.3096C9.82048 11.4722 10.1101 11.6232 10.4041 11.7627C10.7092 11.9079 10.8478 11.871 11.0887 11.6396C11.4594 11.2829 11.7282 10.8481 12.0191 10.4301C12.1329 10.2666 12.2534 10.105 12.3441 9.92862C12.5058 9.61369 12.915 9.47822 13.2856 9.72429C13.7231 10.0152 14.1606 10.3062 14.6017 10.5913C15.2934 11.0391 15.9877 11.4824 16.6816 11.927C17.0266 12.1482 17.097 12.4711 16.8645 12.8025C16.0807 13.9214 15.1508 14.8911 13.9777 15.6062C13.6492 15.807 13.3241 16.034 13.0004 15.9958Z" fill="#F8DA46"/>
</svg>
