<svg width="12" height="17" viewBox="0 0 12 17" fill="none" xmlns="http://www.w3.org/2000/svg">
<path d="M11.9902 6.23269C12.0137 8.12165 11.2909 9.76402 10.3671 11.3273C9.22887 13.2535 7.8022 14.9587 6.45972 16.7278C6.1993 17.0709 5.84235 17.0954 5.59878 16.7685C3.8522 14.4271 1.94063 12.2008 0.749679 9.46509C0.0122119 7.77154 -0.277387 6.03379 0.32426 4.21811C1.23796 1.46028 3.83761 -0.258858 6.66401 0.0319301C9.38377 0.31225 11.6635 2.64553 11.9879 5.49176C12.0137 5.73603 11.9902 5.9861 11.9902 6.23269ZM2.67473 6.17337C2.68146 8.09955 4.20242 9.71168 5.9894 9.68725C7.87628 9.66166 9.36244 8.10769 9.3456 6.17686C9.32877 4.32861 7.80781 2.77697 6.01073 2.77464C4.22038 2.77232 2.66799 4.3542 2.67473 6.17337Z" fill="#F8DA46"/>
</svg>
