<svg width="20" height="20" viewBox="0 0 20 20" fill="none" xmlns="http://www.w3.org/2000/svg">
<path d="M10.95 0.0300293V2.05003C15.34 2.59003 18.45 6.58003 17.91 10.97C17.45 14.61 14.59 17.5 10.95 17.93V19.93C16.45 19.38 20.45 14.5 19.9 9.00003C19.45 4.25003 15.68 0.500029 10.95 0.0300293ZM8.95 0.0600293C7 0.250029 5.14 1.00003 3.62 2.26003L5.05 3.74003C6.17 2.84003 7.52 2.26003 8.95 2.06003V0.0600293ZM2.21 3.67003C0.959656 5.18737 0.190202 7.04311 0 9.00003H2C2.19 7.58003 2.75 6.23003 3.64 5.10003L2.21 3.67003ZM0.00999999 11C0.21 12.96 0.98 14.81 2.22 16.33L3.64 14.9C2.75693 13.7696 2.19395 12.4226 2.01 11H0.00999999ZM5.05 16.37L3.62 17.74C5.13478 19.0027 6.98927 19.7891 8.95 20V18C7.5274 17.8161 6.1804 17.2531 5.05 16.37ZM10.95 16H8.95V14H10.95V16ZM10.95 13H8.95C8.95 9.75003 11.95 10 11.95 8.00003C11.95 6.90003 11.05 6.00003 9.95 6.00003C8.85 6.00003 7.95 6.90003 7.95 8.00003H5.95C5.95 5.79003 7.74 4.00003 9.95 4.00003C12.16 4.00003 13.95 5.79003 13.95 8.00003C13.95 10.5 10.95 10.75 10.95 13Z" fill="#393737"/>
</svg>
